<svg version="1.1" viewBox="0.0 0.0 2000.0 2000.0" fill="none" stroke="none" stroke-linecap="square" stroke-miterlimit="10" xmlns:xlink="http://www.w3.org/1999/xlink" xmlns="http://www.w3.org/2000/svg"><clipPath id="g34ea7593cc0_3_657.0"><path d="m0 0l2000.0 0l0 2000.0l-2000.0 0l0 -2000.0z" clip-rule="nonzero"/></clipPath><g clip-path="url(#g34ea7593cc0_3_657.0)"><path fill="#000000" fill-opacity="0.0" d="m0 0l2000.0 0l0 2000.0l-2000.0 0z" fill-rule="evenodd"/><path fill="#eeeeee" d="m1337.9247 1497.2122l0 0c0 -88.01184 71.34778 -159.3595 159.35962 -159.3595l0 0c42.26477 0 82.79846 16.78955 112.684204 46.675293c29.885742 29.885742 46.675415 70.41943 46.675415 112.684204l0 0c0 88.01196 -71.34778 159.35962 -159.35962 159.35962l0 0c-88.01184 0 -159.35962 -71.34766 -159.35962 -159.35962z" fill-rule="evenodd"/><path fill="#ffffff" d="m343.45563 1497.2122l0 0c0 -88.01184 71.34772 -159.3595 159.35959 -159.3595l0 0c42.2648 0 82.79849 16.78955 112.684235 46.675293c29.885742 29.885742 46.675354 70.41943 46.675354 112.684204l0 0c0 88.01196 -71.34772 159.35962 -159.35959 159.35962l0 0c-88.01187 0 -159.35959 -71.34766 -159.35959 -159.35962z" fill-rule="evenodd"/><path fill="#eeeeee" d="m1225.4177 1065.9994l431.24683 431.24683l-159.32678 159.32678l-431.24683 -431.24683z" fill-rule="evenodd"/><path fill="#ffffff" d="m1337.9247 502.71036l0 0c0 -88.01187 71.34778 -159.35959 159.35962 -159.35959l0 0c42.26477 0 82.79846 16.789642 112.684204 46.675354c29.885742 29.885712 46.675415 70.419464 46.675415 112.684235l0 0c0 88.01187 -71.34778 159.35959 -159.35962 159.35959l0 0c-88.01184 0 -159.35962 -71.34772 -159.35962 -159.35959z" fill-rule="evenodd"/><path fill="#ffffff" d="m343.49036 1497.2053l1153.8014 -1153.8014l159.32678 159.32684l-1153.8013 1153.8014z" fill-rule="evenodd"/><path fill="#fcfdff" d="m343.45563 502.71036l0 0c0 -88.01187 71.34772 -159.35959 159.35959 -159.35959l0 0c42.2648 0 82.79849 16.789642 112.684235 46.675354c29.885742 29.885712 46.675354 70.419464 46.675354 112.684235l0 0c0 88.01187 -71.34772 159.35959 -159.35959 159.35959l0 0c-88.01187 0 -159.35959 -71.34772 -159.35959 -159.35959z" fill-rule="evenodd"/><path fill="#fcfdff" d="m502.78406 343.38202l431.24683 431.24683l-159.32684 159.32684l-431.24683 -431.24683z" fill-rule="evenodd"/><path fill="#fcfdff" d="m502.81174 343.35202l450.56906 0l0 225.35l-450.56906 0z" fill-rule="evenodd"/><path fill="#ffffff" d="m1046.7335 343.35202l450.5691 0l0 225.35l-450.5691 0z" fill-rule="evenodd"/><path fill="#fcfdff" d="m568.7831 502.72525l0 450.56906l-225.35004 0l0 -450.56906z" fill-rule="evenodd"/><path fill="#ffffff" d="m1656.6649 502.72525l0 450.56906l-225.34998 0l0 -450.56906z" fill-rule="evenodd"/><path fill="#ffffff" d="m568.7831 1046.6307l0 450.5691l-225.35004 0l0 -450.5691z" fill-rule="evenodd"/><path fill="#ffffff" d="m502.81174 1431.193l450.56906 0l0 225.34998l-450.56906 0z" fill-rule="evenodd"/><path fill="#eeeeee" d="m1046.7335 1431.193l450.5691 0l0 225.34998l-450.5691 0z" fill-rule="evenodd"/><path fill="#eeeeee" d="m1656.6649 1046.6307l0 450.5691l-225.34998 0l0 -450.5691z" fill-rule="evenodd"/></g></svg>