<svg version="1.1" viewBox="0.0 0.0 1313.3858267716535 1313.3858267716535" fill="none" stroke="none" stroke-linecap="square" stroke-miterlimit="10" xmlns:xlink="http://www.w3.org/1999/xlink" xmlns="http://www.w3.org/2000/svg"><clipPath id="p.0"><path d="m0 0l1313.3859 0l0 1313.3859l-1313.3859 0l0 -1313.3859z" clip-rule="nonzero"/></clipPath><g clip-path="url(#p.0)"><path fill="#000000" fill-opacity="0.0" d="m0 0l1313.3859 0l0 1313.3859l-1313.3859 0z" fill-rule="evenodd"/><path fill="#fcfdff" d="m989.7507 1146.8728l0 0c0 -86.76758 70.33905 -157.10669 157.10663 -157.10669l0 0c41.66736 0 81.62805 16.552246 111.09119 46.015503c29.463257 29.463257 46.015503 69.42395 46.015503 111.09119l0 0c0 86.76758 -70.33899 157.10669 -157.10669 157.10669l0 0c-86.76758 0 -157.10663 -70.33911 -157.10663 -157.10669z" fill-rule="evenodd"/><path fill="#ffffff" d="m9.340728 1146.8728l0 0c0 -86.76758 70.33905 -157.10669 157.10666 -157.10669l0 0c41.667282 0 81.627975 16.552246 111.09119 46.015503c29.463226 29.463257 46.015472 69.42395 46.015472 111.09119l0 0c0 86.76758 -70.339035 157.10669 -157.10666 157.10669l0 0c-86.76761 0 -157.10666 -70.33911 -157.10666 -157.10669z" fill-rule="evenodd"/><path fill="#fcfdff" d="m878.8343 721.75616l425.1501 425.1501l-157.07434 157.07446l-425.15015 -425.1502z" fill-rule="evenodd"/><path fill="#ffffff" d="m989.7507 166.43056l0 0c0 -86.76761 70.33905 -157.10666 157.10663 -157.10666l0 0c41.66736 0 81.62805 16.552261 111.09119 46.015476c29.463257 29.463219 46.015503 69.42391 46.015503 111.09119l0 0c0 86.767624 -70.33899 157.10667 -157.10669 157.10667l0 0c-86.76758 0 -157.10663 -70.33905 -157.10663 -157.10667z" fill-rule="evenodd"/><path fill="#ffffff" d="m9.374987 1146.866l1137.4897 -1137.4897l157.07434 157.07439l-1137.4897 1137.4896z" fill-rule="evenodd"/><path fill="#fcfdff" d="m9.340728 166.43056l0 0c0 -86.76761 70.33905 -157.10666 157.10666 -157.10666l0 0c41.667282 0 81.627975 16.552261 111.09119 46.015476c29.463226 29.463219 46.015472 69.42391 46.015472 111.09119l0 0c0 86.767624 -70.339035 157.10667 -157.10666 157.10667l0 0c-86.76761 0 -157.10666 -70.33905 -157.10666 -157.10667z" fill-rule="evenodd"/><path fill="#fcfdff" d="m166.41667 9.354703l425.15015 425.15015l-157.0744 157.07437l-425.15015 -425.15015z" fill-rule="evenodd"/><path fill="#fcfdff" d="m166.44397 9.325107l444.19922 0l0 222.1642l-444.19922 0z" fill-rule="evenodd"/><path fill="#ffffff" d="m702.6762 9.325107l444.19928 0l0 222.1642l-444.19928 0z" fill-rule="evenodd"/><path fill="#fcfdff" d="m231.48267 166.44522l0 444.19925l-222.1642 0l0 -444.19925z" fill-rule="evenodd"/><path fill="#ffffff" d="m1303.9847 166.44522l0 444.19925l-222.16418 0l0 -444.19925z" fill-rule="evenodd"/><path fill="#ffffff" d="m231.48267 702.6613l0 444.19928l-222.1642 0l0 -444.19928z" fill-rule="evenodd"/><path fill="#ffffff" d="m166.44397 1081.7869l444.19922 0l0 222.16418l-444.19922 0z" fill-rule="evenodd"/><path fill="#fcfdff" d="m702.6762 1081.7869l444.19928 0l0 222.16418l-444.19928 0z" fill-rule="evenodd"/><path fill="#fcfdff" d="m1303.9847 702.6613l0 444.19928l-222.16418 0l0 -444.19928z" fill-rule="evenodd"/></g></svg>