<svg version="1.1" viewBox="0.0 0.0 1600.0 400.0" fill="none" stroke="none" stroke-linecap="square" stroke-miterlimit="10" xmlns:xlink="http://www.w3.org/1999/xlink" xmlns="http://www.w3.org/2000/svg"><clipPath id="p.0"><path d="m0 0l1600.0 0l0 400.0l-1600.0 0l0 -400.0z" clip-rule="nonzero"/></clipPath><g clip-path="url(#p.0)"><path fill="#0052e5" d="m0 0l1600.0 0l0 400.0l-1600.0 0z" fill-rule="evenodd"/><g filter="url(#shadowFilter-p.1)"><use xlink:href="#p.1" transform="matrix(1.0 0.0 0.0 1.0 0.0 2.0)"/></g><defs><filter id="shadowFilter-p.1" filterUnits="userSpaceOnUse"><feGaussianBlur in="SourceAlpha" stdDeviation="36.5" result="blur"/><feComponentTransfer in="blur" color-interpolation-filters="sRGB"><feFuncR type="linear" slope="0" intercept="0.007843138"/><feFuncG type="linear" slope="0" intercept="0.3647059"/><feFuncB type="linear" slope="0" intercept="1.0"/><feFuncA type="linear" slope="0.31" intercept="0"/></feComponentTransfer></filter></defs><g id="p.1"><path fill="#000000" fill-opacity="0.0" d="m490.1065 -209.4465l280.94073 0l0 140.51944l-280.94073 0z" fill-rule="evenodd"/><path stroke="#7dacff" stroke-width="1.0" stroke-linejoin="round" stroke-linecap="butt" d="m490.1065 -209.4465l280.94073 0l0 140.51944l-280.94073 0z" fill-rule="evenodd"/></g><g filter="url(#shadowFilter-p.2)"><use xlink:href="#p.2" transform="matrix(1.0 0.0 0.0 1.0 0.0 2.0)"/></g><defs><filter id="shadowFilter-p.2" filterUnits="userSpaceOnUse"><feGaussianBlur in="SourceAlpha" stdDeviation="36.5" result="blur"/><feComponentTransfer in="blur" color-interpolation-filters="sRGB"><feFuncR type="linear" slope="0" intercept="0.007843138"/><feFuncG type="linear" slope="0" intercept="0.3647059"/><feFuncB type="linear" slope="0" intercept="1.0"/><feFuncA type="linear" slope="0.31" intercept="0"/></feComponentTransfer></filter></defs><g id="p.2"><path fill="#000000" fill-opacity="0.0" d="m829.2412 -209.4465l280.94067 0l0 140.51944l-280.94067 0z" fill-rule="evenodd"/><path stroke="#7dacff" stroke-width="1.0" stroke-linejoin="round" stroke-linecap="butt" d="m829.2412 -209.4465l280.94067 0l0 140.51944l-280.94067 0z" fill-rule="evenodd"/></g><path fill="#000000" fill-opacity="0.0" d="m771.0252 -139.17517l0 0c0 -16.070358 13.027588 -29.097961 29.097961 -29.097961l0 0c7.717285 0 15.118469 3.0656738 20.575378 8.522598c5.456909 5.4569244 8.522583 12.858093 8.522583 20.575363l0 0c0 16.07035 -13.027588 29.097954 -29.097961 29.097954l0 0c-16.070374 0 -29.097961 -13.027603 -29.097961 -29.097954z" fill-rule="evenodd"/><path stroke="#7dacff" stroke-width="1.0" stroke-linejoin="round" stroke-linecap="butt" d="m771.0252 -139.17517l0 0c0 -16.070358 13.027588 -29.097961 29.097961 -29.097961l0 0c7.717285 0 15.118469 3.0656738 20.575378 8.522598c5.456909 5.4569244 8.522583 12.858093 8.522583 20.575363l0 0c0 16.07035 -13.027588 29.097954 -29.097961 29.097954l0 0c-16.070374 0 -29.097961 -13.027603 -29.097961 -29.097954z" fill-rule="evenodd"/><path fill="#000000" fill-opacity="0.0" d="m771.0252 -180.31676l0 0c0 -16.070358 13.027588 -29.097946 29.097961 -29.097946l0 0c7.717285 0 15.118469 3.0656586 20.575378 8.522583c5.456909 5.4569397 8.522583 12.8581085 8.522583 20.575363l0 0c0 16.070358 -13.027588 29.097961 -29.097961 29.097961l0 0c-16.070374 0 -29.097961 -13.027603 -29.097961 -29.097961z" fill-rule="evenodd"/><path stroke="#7dacff" stroke-width="1.0" stroke-linejoin="round" stroke-linecap="butt" d="m771.0252 -180.31676l0 0c0 -16.070358 13.027588 -29.097946 29.097961 -29.097946l0 0c7.717285 0 15.118469 3.0656586 20.575378 8.522583c5.456909 5.4569397 8.522583 12.8581085 8.522583 20.575363l0 0c0 16.070358 -13.027588 29.097961 -29.097961 29.097961l0 0c-16.070374 0 -29.097961 -13.027603 -29.097961 -29.097961z" fill-rule="evenodd"/><path fill="#000000" fill-opacity="0.0" d="m771.0252 -98.038704l0 0c0 -16.070358 13.027588 -29.097961 29.097961 -29.097961l0 0c7.717285 0 15.118469 3.0656738 20.575378 8.522598c5.456909 5.4569244 8.522583 12.858101 8.522583 20.575363l0 0c0 16.070358 -13.027588 29.097954 -29.097961 29.097954l0 0c-16.070374 0 -29.097961 -13.0275955 -29.097961 -29.097954z" fill-rule="evenodd"/><path stroke="#7dacff" stroke-width="1.0" stroke-linejoin="round" stroke-linecap="butt" d="m771.0252 -98.038704l0 0c0 -16.070358 13.027588 -29.097961 29.097961 -29.097961l0 0c7.717285 0 15.118469 3.0656738 20.575378 8.522598c5.456909 5.4569244 8.522583 12.858101 8.522583 20.575363l0 0c0 16.070358 -13.027588 29.097954 -29.097961 29.097954l0 0c-16.070374 0 -29.097961 -13.0275955 -29.097961 -29.097954z" fill-rule="evenodd"/><path fill="#000000" fill-opacity="0.0" d="m277.84958 -139.16136l1044.8756 0" fill-rule="evenodd"/><path stroke="#7dacff" stroke-width="1.0" stroke-linejoin="round" stroke-linecap="butt" d="m277.84958 -139.16136l1044.8756 0" fill-rule="evenodd"/><path fill="#000000" fill-opacity="0.0" d="m452.45016 -118.72003l0 0c0 -16.070358 13.027618 -29.097961 29.097961 -29.097961l0 0c7.7172546 0 15.118439 3.0656738 20.575378 8.522598c5.456909 5.4569244 8.522583 12.8581085 8.522583 20.575363l0 0c0 16.070358 -13.027588 29.097961 -29.097961 29.097961l0 0c-16.070343 0 -29.097961 -13.027603 -29.097961 -29.097961z" fill-rule="evenodd"/><path stroke="#7dacff" stroke-width="1.0" stroke-linejoin="round" stroke-linecap="butt" d="m452.45016 -118.72003l0 0c0 -16.070358 13.027618 -29.097961 29.097961 -29.097961l0 0c7.7172546 0 15.118439 3.0656738 20.575378 8.522598c5.456909 5.4569244 8.522583 12.8581085 8.522583 20.575363l0 0c0 16.070358 -13.027588 29.097961 -29.097961 29.097961l0 0c-16.070343 0 -29.097961 -13.027603 -29.097961 -29.097961z" fill-rule="evenodd"/><path fill="#000000" fill-opacity="0.0" d="m1089.6877 -118.72003l0 0c0 -16.070358 13.027588 -29.097961 29.0979 -29.097961l0 0c7.717285 0 15.118408 3.0656738 20.575317 8.522598c5.4570312 5.4569244 8.522705 12.8581085 8.522705 20.575363l0 0c0 16.070358 -13.02771 29.097961 -29.098022 29.097961l0 0c-16.070312 0 -29.0979 -13.027603 -29.0979 -29.097961z" fill-rule="evenodd"/><path stroke="#7dacff" stroke-width="1.0" stroke-linejoin="round" stroke-linecap="butt" d="m1089.6877 -118.72003l0 0c0 -16.070358 13.027588 -29.097961 29.0979 -29.097961l0 0c7.717285 0 15.118408 3.0656738 20.575317 8.522598c5.4570312 5.4569244 8.522705 12.8581085 8.522705 20.575363l0 0c0 16.070358 -13.02771 29.097961 -29.098022 29.097961l0 0c-16.070312 0 -29.0979 -13.027603 -29.0979 -29.097961z" fill-rule="evenodd"/><path fill="#000000" fill-opacity="0.0" d="m630.40295 -209.34555l0 0c38.762695 -93.622894 146.0824 -138.10684 239.70526 -99.357666l0 0c44.95935 18.608002 80.68262 54.313858 99.31122 99.262726c18.62854 44.948868 18.636475 95.45874 0.021972656 140.41803l0 0c-38.762756 93.62288 -146.08246 138.10683 -239.70532 99.35768l0 0c-93.622925 -38.74915 -138.09589 -146.05789 -99.33313 -239.68077z" fill-rule="evenodd"/><path stroke="#7dacff" stroke-width="1.0" stroke-linejoin="round" stroke-linecap="butt" d="m630.40295 -209.34555l0 0c38.762695 -93.622894 146.0824 -138.10684 239.70526 -99.357666l0 0c44.95935 18.608002 80.68262 54.313858 99.31122 99.262726c18.62854 44.948868 18.636475 95.45874 0.021972656 140.41803l0 0c-38.762756 93.62288 -146.08246 138.10683 -239.70532 99.35768l0 0c-93.622925 -38.74915 -138.09589 -146.05789 -99.33313 -239.68077z" fill-rule="evenodd"/><path fill="#000000" fill-opacity="0.0" d="m390.67322 -308.64124l0 0c93.595795 -38.830475 200.94849 5.5655518 239.77899 99.16133l0 0c18.647034 44.946274 18.675537 95.45918 0.0791626 140.42645c-18.596375 44.967274 -54.29425 80.70544 -99.24054 99.35249l0 0c-93.59573 38.830482 -200.94846 -5.5655518 -239.77893 -99.16132l0 0c-38.830475 -93.59578 5.5655518 -200.94846 99.161316 -239.77896z" fill-rule="evenodd"/><path stroke="#7dacff" stroke-width="1.0" stroke-linejoin="round" stroke-linecap="butt" d="m390.67322 -308.64124l0 0c93.595795 -38.830475 200.94849 5.5655518 239.77899 99.16133l0 0c18.647034 44.946274 18.675537 95.45918 0.0791626 140.42645c-18.596375 44.967274 -54.29425 80.70544 -99.24054 99.35249l0 0c-93.59573 38.830482 -200.94846 -5.5655518 -239.77893 -99.16132l0 0c-38.830475 -93.59578 5.5655518 -200.94846 99.161316 -239.77896z" fill-rule="evenodd"/><path fill="#000000" fill-opacity="0.0" d="m969.69244 129.86826l0 0c38.762695 -93.62288 146.08246 -138.10683 239.70526 -99.35768l0 0c44.95935 18.607998 80.68262 54.31387 99.31128 99.26274c18.62854 44.948868 18.636475 95.45874 0.021972656 140.41803l0 0c-38.762817 93.622894 -146.08252 138.10684 -239.70532 99.3577l0 0c-93.622925 -38.749176 -138.09589 -146.05789 -99.33319 -239.68079z" fill-rule="evenodd"/><path stroke="#7dacff" stroke-width="1.0" stroke-linejoin="round" stroke-linecap="butt" d="m969.69244 129.86826l0 0c38.762695 -93.62288 146.08246 -138.10683 239.70526 -99.35768l0 0c44.95935 18.607998 80.68262 54.31387 99.31128 99.26274c18.62854 44.948868 18.636475 95.45874 0.021972656 140.41803l0 0c-38.762817 93.622894 -146.08252 138.10684 -239.70532 99.3577l0 0c-93.622925 -38.749176 -138.09589 -146.05789 -99.33319 -239.68079z" fill-rule="evenodd"/><path fill="#000000" fill-opacity="0.0" d="m390.9319 -109.8721l0 0c38.762726 -93.622894 146.08246 -138.10684 239.70532 -99.35768l0 0c44.95929 18.608002 80.682556 54.313873 99.31116 99.26273c18.628601 44.94886 18.636475 95.45874 0.021972656 140.41803l0 0c-38.762695 93.62288 -146.0824 138.10683 -239.70532 99.35768l0 0c-93.62286 -38.749153 -138.09583 -146.05789 -99.33313 -239.68077z" fill-rule="evenodd"/><path stroke="#7dacff" stroke-width="1.0" stroke-linejoin="round" stroke-linecap="butt" d="m390.9319 -109.8721l0 0c38.762726 -93.622894 146.08246 -138.10684 239.70532 -99.35768l0 0c44.95929 18.608002 80.682556 54.313873 99.31116 99.26273c18.628601 44.94886 18.636475 95.45874 0.021972656 140.41803l0 0c-38.762695 93.62288 -146.0824 138.10683 -239.70532 99.35768l0 0c-93.62286 -38.749153 -138.09583 -146.05789 -99.33313 -239.68077z" fill-rule="evenodd"/><path fill="#000000" fill-opacity="0.0" d="m291.46054 129.77623l0 0c38.762695 -93.62288 146.08243 -138.10683 239.70529 -99.35767l0 0c44.95929 18.608 80.68262 54.313873 99.31116 99.26273c18.628601 44.948868 18.636536 95.45874 0.021972656 140.41805l0 0c-38.762695 93.62286 -146.0824 138.10681 -239.70529 99.357666l0 0c-93.622894 -38.749146 -138.09584 -146.05788 -99.33313 -239.68077z" fill-rule="evenodd"/><path stroke="#7dacff" stroke-width="1.0" stroke-linejoin="round" stroke-linecap="butt" d="m291.46054 129.77623l0 0c38.762695 -93.62288 146.08243 -138.10683 239.70529 -99.35767l0 0c44.95929 18.608 80.68262 54.313873 99.31116 99.26273c18.628601 44.948868 18.636536 95.45874 0.021972656 140.41805l0 0c-38.762695 93.62286 -146.0824 138.10681 -239.70529 99.357666l0 0c-93.622894 -38.749146 -138.09584 -146.05788 -99.33313 -239.68077z" fill-rule="evenodd"/><path fill="#000000" fill-opacity="0.0" d="m291.46054 468.9509l0 0c38.762695 -93.622894 146.08243 -138.10684 239.70529 -99.357666l0 0c44.95929 18.607971 80.68262 54.313843 99.31116 99.262726c18.628601 44.948853 18.636536 95.45874 0.021972656 140.41803l0 0c-38.762695 93.62286 -146.0824 138.10681 -239.70529 99.357666l0 0c-93.622894 -38.749146 -138.09584 -146.05786 -99.33313 -239.68076z" fill-rule="evenodd"/><path stroke="#7dacff" stroke-width="1.0" stroke-linejoin="round" stroke-linecap="butt" d="m291.46054 468.9509l0 0c38.762695 -93.622894 146.08243 -138.10684 239.70529 -99.357666l0 0c44.95929 18.607971 80.68262 54.313843 99.31116 99.262726c18.628601 44.948853 18.636536 95.45874 0.021972656 140.41803l0 0c-38.762695 93.62286 -146.0824 138.10681 -239.70529 99.357666l0 0c-93.622894 -38.749146 -138.09584 -146.05786 -99.33313 -239.68076z" fill-rule="evenodd"/><path fill="#000000" fill-opacity="0.0" d="m969.69244 468.9509l0 0c38.762695 -93.622894 146.08246 -138.10684 239.70526 -99.357666l0 0c44.95935 18.607971 80.68262 54.313843 99.31128 99.262726c18.62854 44.948853 18.636475 95.45874 0.021972656 140.41803l0 0c-38.762817 93.62286 -146.08252 138.10681 -239.70532 99.357666l0 0c-93.622925 -38.749146 -138.09589 -146.05786 -99.33319 -239.68076z" fill-rule="evenodd"/><path stroke="#7dacff" stroke-width="1.0" stroke-linejoin="round" stroke-linecap="butt" d="m969.69244 468.9509l0 0c38.762695 -93.622894 146.08246 -138.10684 239.70526 -99.357666l0 0c44.95935 18.607971 80.68262 54.313843 99.31128 99.262726c18.62854 44.948853 18.636475 95.45874 0.021972656 140.41803l0 0c-38.762817 93.62286 -146.08252 138.10681 -239.70532 99.357666l0 0c-93.622925 -38.749146 -138.09589 -146.05786 -99.33319 -239.68076z" fill-rule="evenodd"/><path fill="#000000" fill-opacity="0.0" d="m870.36816 369.4922l0 0c38.762756 -93.622894 146.08246 -138.10683 239.70532 -99.357666l0 0c44.95935 18.607971 80.68262 54.313843 99.31116 99.262726c18.628662 44.948853 18.636475 95.45874 0.021972656 140.41803l0 0c-38.762695 93.622894 -146.0824 138.10684 -239.70532 99.3577l0 0c-93.62286 -38.749146 -138.09583 -146.05789 -99.33313 -239.68079z" fill-rule="evenodd"/><path stroke="#7dacff" stroke-width="1.0" stroke-linejoin="round" stroke-linecap="butt" d="m870.36816 369.4922l0 0c38.762756 -93.622894 146.08246 -138.10683 239.70532 -99.357666l0 0c44.95935 18.607971 80.68262 54.313843 99.31116 99.262726c18.628662 44.948853 18.636475 95.45874 0.021972656 140.41803l0 0c-38.762695 93.622894 -146.0824 138.10684 -239.70532 99.3577l0 0c-93.62286 -38.749146 -138.09583 -146.05789 -99.33313 -239.68079z" fill-rule="evenodd"/><path fill="#000000" fill-opacity="0.0" d="m390.9319 369.49875l0 0c38.762726 -93.622894 146.08246 -138.10684 239.70532 -99.3577l0 0c44.95929 18.608002 80.682556 54.313873 99.31116 99.262726c18.628601 44.948883 18.636475 95.45874 0.021972656 140.41806l0 0c-38.762695 93.62286 -146.0824 138.10681 -239.70532 99.357666l0 0c-93.62286 -38.749146 -138.09583 -146.05789 -99.33313 -239.68076z" fill-rule="evenodd"/><path stroke="#7dacff" stroke-width="1.0" stroke-linejoin="round" stroke-linecap="butt" d="m390.9319 369.49875l0 0c38.762726 -93.622894 146.08246 -138.10684 239.70532 -99.3577l0 0c44.95929 18.608002 80.682556 54.313873 99.31116 99.262726c18.628601 44.948883 18.636475 95.45874 0.021972656 140.41806l0 0c-38.762695 93.62286 -146.0824 138.10681 -239.70532 99.357666l0 0c-93.62286 -38.749146 -138.09583 -146.05789 -99.33313 -239.68076z" fill-rule="evenodd"/><path fill="#000000" fill-opacity="0.0" d="m486.2874 70.15339l0 0c71.76422 -173.3511 270.46948 -255.71454 443.82056 -183.9639l0 0c83.246155 34.45588 149.39264 100.56994 183.88788 183.79784c34.49536 83.22789 34.513916 176.75203 0.051513672 259.99817l0 0c-71.76428 173.3511 -270.46948 255.71457 -443.82062 183.9639l0 0c-173.35107 -71.75067 -255.70352 -270.4449 -183.93933 -443.79602z" fill-rule="evenodd"/><path stroke="#7dacff" stroke-width="1.0" stroke-linejoin="round" stroke-linecap="butt" d="m486.2874 70.15339l0 0c71.76422 -173.3511 270.46948 -255.71454 443.82056 -183.9639l0 0c83.246155 34.45588 149.39264 100.56994 183.88788 183.79784c34.49536 83.22789 34.513916 176.75203 0.051513672 259.99817l0 0c-71.76428 173.3511 -270.46948 255.71457 -443.82062 183.9639l0 0c-173.35107 -71.75067 -255.70352 -270.4449 -183.93933 -443.79602z" fill-rule="evenodd"/><path fill="#000000" fill-opacity="0.0" d="m176.72177 199.97281l0 0c0 -344.3164 279.1236 -623.44 623.44006 -623.44l0 0c165.34656 0 323.92096 65.683655 440.83868 182.60135c116.9176 116.91768 182.60132 275.49207 182.60132 440.83865l0 0c0 344.31638 -279.12366 623.43994 -623.44 623.43994l0 0c-344.31644 0 -623.44006 -279.1236 -623.44006 -623.43994z" fill-rule="evenodd"/><path stroke="#7dacff" stroke-width="1.0" stroke-linejoin="round" stroke-linecap="butt" d="m176.72177 199.97281l0 0c0 -344.3164 279.1236 -623.44 623.44006 -623.44l0 0c165.34656 0 323.92096 65.683655 440.83868 182.60135c116.9176 116.91768 182.60132 275.49207 182.60132 440.83865l0 0c0 344.31638 -279.12366 623.43994 -623.44 623.43994l0 0c-344.31644 0 -623.44006 -279.1236 -623.44006 -623.43994z" fill-rule="evenodd"/><path fill="#000000" fill-opacity="0.0" d="m510.3702 -89.80363l0 0c160.10715 -160.10712 419.6976 -160.1181 579.8114 -0.024543762l0 0c76.889404 76.87965 120.08679 181.15341 120.08911 289.88226c0.002319336 108.72882 -43.190674 213.00626 -120.07678 289.8924l0 0c-160.10712 160.10712 -419.69757 160.1181 -579.8115 0.02456665l0 0c-160.11389 -160.09357 -160.11938 -419.66754 -0.012268066 -579.77466z" fill-rule="evenodd"/><path stroke="#7dacff" stroke-width="1.0" stroke-linejoin="round" stroke-linecap="butt" d="m510.3702 -89.80363l0 0c160.10715 -160.10712 419.6976 -160.1181 579.8114 -0.024543762l0 0c76.889404 76.87965 120.08679 181.15341 120.08911 289.88226c0.002319336 108.72882 -43.190674 213.00626 -120.07678 289.8924l0 0c-160.10712 160.10712 -419.69757 160.1181 -579.8115 0.02456665l0 0c-160.11389 -160.09357 -160.11938 -419.66754 -0.012268066 -579.77466z" fill-rule="evenodd"/><path fill="#000000" fill-opacity="0.0" d="m870.36816 -109.87865l0 0c38.762756 -93.622894 146.08246 -138.10684 239.70532 -99.35768l0 0c44.95935 18.608002 80.68262 54.313873 99.31116 99.26273c18.628662 44.94886 18.636475 95.45874 0.021972656 140.41803l0 0c-38.762695 93.62288 -146.0824 138.10683 -239.70532 99.35768l0 0c-93.62286 -38.749153 -138.09583 -146.05789 -99.33313 -239.68077z" fill-rule="evenodd"/><path stroke="#7dacff" stroke-width="1.0" stroke-linejoin="round" stroke-linecap="butt" d="m870.36816 -109.87865l0 0c38.762756 -93.622894 146.08246 -138.10684 239.70532 -99.35768l0 0c44.95935 18.608002 80.68262 54.313873 99.31116 99.26273c18.628662 44.94886 18.636475 95.45874 0.021972656 140.41803l0 0c-38.762695 93.62288 -146.0824 138.10683 -239.70532 99.35768l0 0c-93.62286 -38.749153 -138.09583 -146.05789 -99.33313 -239.68077z" fill-rule="evenodd"/><path fill="#000000" fill-opacity="0.0" d="m969.69244 -209.34555l0 0c38.762695 -93.622894 146.08246 -138.10684 239.70526 -99.357666l0 0c44.95935 18.608002 80.68262 54.313858 99.31128 99.262726c18.62854 44.948868 18.636475 95.45874 0.021972656 140.41803l0 0c-38.762817 93.62288 -146.08252 138.10683 -239.70532 99.35768l0 0c-93.622925 -38.74915 -138.09589 -146.05789 -99.33319 -239.68077z" fill-rule="evenodd"/><path stroke="#7dacff" stroke-width="1.0" stroke-linejoin="round" stroke-linecap="butt" d="m969.69244 -209.34555l0 0c38.762695 -93.622894 146.08246 -138.10684 239.70526 -99.357666l0 0c44.95935 18.608002 80.68262 54.313858 99.31128 99.262726c18.62854 44.948868 18.636475 95.45874 0.021972656 140.41803l0 0c-38.762817 93.62288 -146.08252 138.10683 -239.70532 99.35768l0 0c-93.622925 -38.74915 -138.09589 -146.05789 -99.33319 -239.68077z" fill-rule="evenodd"/><path fill="#000000" fill-opacity="0.0" d="m359.36768 640.78326l881.6522 -881.65216" fill-rule="evenodd"/><path stroke="#7dacff" stroke-width="1.0" stroke-linejoin="round" stroke-linecap="butt" d="m359.36768 640.78326l881.6522 -881.65216" fill-rule="evenodd"/><path fill="#000000" fill-opacity="0.0" d="m359.45605 -240.71819l881.62756 881.6276" fill-rule="evenodd"/><path stroke="#7dacff" stroke-width="1.0" stroke-linejoin="round" stroke-linecap="butt" d="m359.45605 -240.71819l881.62756 881.6276" fill-rule="evenodd"/><g filter="url(#shadowFilter-p.3)"><use xlink:href="#p.3" transform="matrix(1.0 0.0 0.0 1.0 0.0 2.0)"/></g><defs><filter id="shadowFilter-p.3" filterUnits="userSpaceOnUse"><feGaussianBlur in="SourceAlpha" stdDeviation="36.5" result="blur"/><feComponentTransfer in="blur" color-interpolation-filters="sRGB"><feFuncR type="linear" slope="0" intercept="0.007843138"/><feFuncG type="linear" slope="0" intercept="0.3647059"/><feFuncB type="linear" slope="0" intercept="1.0"/><feFuncA type="linear" slope="0.31" intercept="0"/></feComponentTransfer></filter></defs><g id="p.3"><path fill="#000000" fill-opacity="0.0" d="m1010.7985 509.98123l0 0c0 -54.87375 44.483948 -99.3577 99.35773 -99.3577l0 0c26.351318 0 51.62329 10.468018 70.25647 29.101196c18.633179 18.633179 29.101196 43.905212 29.101196 70.2565l0 0c0 54.87375 -44.48401 99.3577 -99.357666 99.3577l0 0c-54.87378 0 -99.35773 -44.483948 -99.35773 -99.3577z" fill-rule="evenodd"/><path stroke="#7dacff" stroke-width="1.0" stroke-linejoin="round" stroke-linecap="butt" d="m1010.7985 509.98123l0 0c0 -54.87375 44.483948 -99.3577 99.35773 -99.3577l0 0c26.351318 0 51.62329 10.468018 70.25647 29.101196c18.633179 18.633179 29.101196 43.905212 29.101196 70.2565l0 0c0 54.87375 -44.48401 99.3577 -99.357666 99.3577l0 0c-54.87378 0 -99.35773 -44.483948 -99.35773 -99.3577z" fill-rule="evenodd"/></g><g filter="url(#shadowFilter-p.4)"><use xlink:href="#p.4" transform="matrix(1.0 0.0 0.0 1.0 0.0 2.0)"/></g><defs><filter id="shadowFilter-p.4" filterUnits="userSpaceOnUse"><feGaussianBlur in="SourceAlpha" stdDeviation="36.5" result="blur"/><feComponentTransfer in="blur" color-interpolation-filters="sRGB"><feFuncR type="linear" slope="0" intercept="0.007843138"/><feFuncG type="linear" slope="0" intercept="0.3647059"/><feFuncB type="linear" slope="0" intercept="1.0"/><feFuncA type="linear" slope="0.31" intercept="0"/></feComponentTransfer></filter></defs><g id="p.4"><path fill="#000000" fill-opacity="0.0" d="m390.74817 509.98123l0 0c0 -54.87375 44.483948 -99.3577 99.357666 -99.3577l0 0c26.351318 0 51.62329 10.468018 70.25647 29.101196c18.633179 18.633179 29.101196 43.905212 29.101196 70.2565l0 0c0 54.87375 -44.483948 99.3577 -99.357666 99.3577l0 0c-54.87372 0 -99.357666 -44.483948 -99.357666 -99.3577z" fill-rule="evenodd"/><path stroke="#7dacff" stroke-width="1.0" stroke-linejoin="round" stroke-linecap="butt" d="m390.74817 509.98123l0 0c0 -54.87375 44.483948 -99.3577 99.357666 -99.3577l0 0c26.351318 0 51.62329 10.468018 70.25647 29.101196c18.633179 18.633179 29.101196 43.905212 29.101196 70.2565l0 0c0 54.87375 -44.483948 99.3577 -99.357666 99.3577l0 0c-54.87372 0 -99.357666 -44.483948 -99.357666 -99.3577z" fill-rule="evenodd"/></g><g filter="url(#shadowFilter-p.5)"><use xlink:href="#p.5" transform="matrix(1.0 0.0 0.0 1.0 0.0 2.0)"/></g><defs><filter id="shadowFilter-p.5" filterUnits="userSpaceOnUse"><feGaussianBlur in="SourceAlpha" stdDeviation="36.5" result="blur"/><feComponentTransfer in="blur" color-interpolation-filters="sRGB"><feFuncR type="linear" slope="0" intercept="0.007843138"/><feFuncG type="linear" slope="0" intercept="0.3647059"/><feFuncB type="linear" slope="0" intercept="1.0"/><feFuncA type="linear" slope="0.31" intercept="0"/></feComponentTransfer></filter></defs><g id="p.5"><path fill="#000000" fill-opacity="0.0" d="m940.6506 241.12334l268.88922 268.88916l-99.357666 99.357666l-268.88922 -268.88916z" fill-rule="evenodd"/><path stroke="#7dacff" stroke-width="1.0" stroke-linejoin="round" stroke-linecap="butt" d="m940.6506 241.12334l268.88922 268.88916l-99.357666 99.357666l-268.88922 -268.88916z" fill-rule="evenodd"/></g><g filter="url(#shadowFilter-p.6)"><use xlink:href="#p.6" transform="matrix(1.0 0.0 0.0 1.0 0.0 2.0)"/></g><defs><filter id="shadowFilter-p.6" filterUnits="userSpaceOnUse"><feGaussianBlur in="SourceAlpha" stdDeviation="36.5" result="blur"/><feComponentTransfer in="blur" color-interpolation-filters="sRGB"><feFuncR type="linear" slope="0" intercept="0.007843138"/><feFuncG type="linear" slope="0" intercept="0.3647059"/><feFuncB type="linear" slope="0" intercept="1.0"/><feFuncA type="linear" slope="0.31" intercept="0"/></feComponentTransfer></filter></defs><g id="p.6"><path fill="#000000" fill-opacity="0.0" d="m1010.7985 -110.089584l0 0c0 -54.873734 44.483948 -99.35768 99.35773 -99.35768l0 0c26.351318 0 51.62329 10.468002 70.25647 29.101181c18.633179 18.633194 29.101196 43.905197 29.101196 70.2565l0 0c0 54.87373 -44.48401 99.35768 -99.357666 99.35768l0 0c-54.87378 0 -99.35773 -44.483948 -99.35773 -99.35768z" fill-rule="evenodd"/><path stroke="#7dacff" stroke-width="1.0" stroke-linejoin="round" stroke-linecap="butt" d="m1010.7985 -110.089584l0 0c0 -54.873734 44.483948 -99.35768 99.35773 -99.35768l0 0c26.351318 0 51.62329 10.468002 70.25647 29.101181c18.633179 18.633194 29.101196 43.905197 29.101196 70.2565l0 0c0 54.87373 -44.48401 99.35768 -99.357666 99.35768l0 0c-54.87378 0 -99.35773 -44.483948 -99.35773 -99.35768z" fill-rule="evenodd"/></g><g filter="url(#shadowFilter-p.7)"><use xlink:href="#p.7" transform="matrix(1.0 0.0 0.0 1.0 0.0 2.0)"/></g><defs><filter id="shadowFilter-p.7" filterUnits="userSpaceOnUse"><feGaussianBlur in="SourceAlpha" stdDeviation="36.5" result="blur"/><feComponentTransfer in="blur" color-interpolation-filters="sRGB"><feFuncR type="linear" slope="0" intercept="0.007843138"/><feFuncG type="linear" slope="0" intercept="0.3647059"/><feFuncB type="linear" slope="0" intercept="1.0"/><feFuncA type="linear" slope="0.31" intercept="0"/></feComponentTransfer></filter></defs><g id="p.7"><path fill="#000000" fill-opacity="0.0" d="m390.76984 509.97977l719.3859 -719.386l99.357666 99.35768l-719.3859 719.386z" fill-rule="evenodd"/><path stroke="#7dacff" stroke-width="1.0" stroke-linejoin="round" stroke-linecap="butt" d="m390.76984 509.97977l719.3859 -719.386l99.357666 99.35768l-719.3859 719.386z" fill-rule="evenodd"/></g><g filter="url(#shadowFilter-p.8)"><use xlink:href="#p.8" transform="matrix(1.0 0.0 0.0 1.0 0.0 2.0)"/></g><defs><filter id="shadowFilter-p.8" filterUnits="userSpaceOnUse"><feGaussianBlur in="SourceAlpha" stdDeviation="36.5" result="blur"/><feComponentTransfer in="blur" color-interpolation-filters="sRGB"><feFuncR type="linear" slope="0" intercept="0.007843138"/><feFuncG type="linear" slope="0" intercept="0.3647059"/><feFuncB type="linear" slope="0" intercept="1.0"/><feFuncA type="linear" slope="0.31" intercept="0"/></feComponentTransfer></filter></defs><g id="p.8"><path fill="#000000" fill-opacity="0.0" d="m390.74817 -110.089584l0 0c0 -54.873734 44.483948 -99.35768 99.357666 -99.35768l0 0c26.351318 0 51.62329 10.468002 70.25647 29.101181c18.633179 18.633194 29.101196 43.905197 29.101196 70.2565l0 0c0 54.87373 -44.483948 99.35768 -99.357666 99.35768l0 0c-54.87372 0 -99.357666 -44.483948 -99.357666 -99.35768z" fill-rule="evenodd"/><path stroke="#7dacff" stroke-width="1.0" stroke-linejoin="round" stroke-linecap="butt" d="m390.74817 -110.089584l0 0c0 -54.873734 44.483948 -99.35768 99.357666 -99.35768l0 0c26.351318 0 51.62329 10.468002 70.25647 29.101181c18.633179 18.633194 29.101196 43.905197 29.101196 70.2565l0 0c0 54.87373 -44.483948 99.35768 -99.357666 99.35768l0 0c-54.87372 0 -99.357666 -44.483948 -99.357666 -99.35768z" fill-rule="evenodd"/></g><g filter="url(#shadowFilter-p.9)"><use xlink:href="#p.9" transform="matrix(1.0 0.0 0.0 1.0 0.0 2.0)"/></g><defs><filter id="shadowFilter-p.9" filterUnits="userSpaceOnUse"><feGaussianBlur in="SourceAlpha" stdDeviation="36.5" result="blur"/><feComponentTransfer in="blur" color-interpolation-filters="sRGB"><feFuncR type="linear" slope="0" intercept="0.007843138"/><feFuncG type="linear" slope="0" intercept="0.3647059"/><feFuncB type="linear" slope="0" intercept="1.0"/><feFuncA type="linear" slope="0.31" intercept="0"/></feComponentTransfer></filter></defs><g id="p.9"><path fill="#000000" fill-opacity="0.0" d="m531.23956 -110.07747l0 280.94073l-140.51941 0l0 -280.94073z" fill-rule="evenodd"/><path stroke="#7dacff" stroke-width="1.0" stroke-linejoin="round" stroke-linecap="butt" d="m531.23956 -110.07747l0 280.94073l-140.51941 0l0 -280.94073z" fill-rule="evenodd"/></g><g filter="url(#shadowFilter-p.10)"><use xlink:href="#p.10" transform="matrix(1.0 0.0 0.0 1.0 0.0 2.0)"/></g><defs><filter id="shadowFilter-p.10" filterUnits="userSpaceOnUse"><feGaussianBlur in="SourceAlpha" stdDeviation="36.5" result="blur"/><feComponentTransfer in="blur" color-interpolation-filters="sRGB"><feFuncR type="linear" slope="0" intercept="0.007843138"/><feFuncG type="linear" slope="0" intercept="0.3647059"/><feFuncB type="linear" slope="0" intercept="1.0"/><feFuncA type="linear" slope="0.31" intercept="0"/></feComponentTransfer></filter></defs><g id="p.10"><path fill="#000000" fill-opacity="0.0" d="m1209.5327 -110.07747l0 280.94073l-140.51941 0l0 -280.94073z" fill-rule="evenodd"/><path stroke="#7dacff" stroke-width="1.0" stroke-linejoin="round" stroke-linecap="butt" d="m1209.5327 -110.07747l0 280.94073l-140.51941 0l0 -280.94073z" fill-rule="evenodd"/></g><g filter="url(#shadowFilter-p.11)"><use xlink:href="#p.11" transform="matrix(1.0 0.0 0.0 1.0 0.0 2.0)"/></g><defs><filter id="shadowFilter-p.11" filterUnits="userSpaceOnUse"><feGaussianBlur in="SourceAlpha" stdDeviation="36.5" result="blur"/><feComponentTransfer in="blur" color-interpolation-filters="sRGB"><feFuncR type="linear" slope="0" intercept="0.007843138"/><feFuncG type="linear" slope="0" intercept="0.3647059"/><feFuncB type="linear" slope="0" intercept="1.0"/><feFuncA type="linear" slope="0.31" intercept="0"/></feComponentTransfer></filter></defs><g id="p.11"><path fill="#000000" fill-opacity="0.0" d="m531.23956 229.047l0 280.9407l-140.51941 0l0 -280.9407z" fill-rule="evenodd"/><path stroke="#7dacff" stroke-width="1.0" stroke-linejoin="round" stroke-linecap="butt" d="m531.23956 229.047l0 280.9407l-140.51941 0l0 -280.9407z" fill-rule="evenodd"/></g><g filter="url(#shadowFilter-p.12)"><use xlink:href="#p.12" transform="matrix(1.0 0.0 0.0 1.0 0.0 2.0)"/></g><defs><filter id="shadowFilter-p.12" filterUnits="userSpaceOnUse"><feGaussianBlur in="SourceAlpha" stdDeviation="36.5" result="blur"/><feComponentTransfer in="blur" color-interpolation-filters="sRGB"><feFuncR type="linear" slope="0" intercept="0.007843138"/><feFuncG type="linear" slope="0" intercept="0.3647059"/><feFuncB type="linear" slope="0" intercept="1.0"/><feFuncA type="linear" slope="0.31" intercept="0"/></feComponentTransfer></filter></defs><g id="p.12"><path fill="#000000" fill-opacity="0.0" d="m490.1065 468.82114l280.94073 0l0 140.51944l-280.94073 0z" fill-rule="evenodd"/><path stroke="#7dacff" stroke-width="1.0" stroke-linejoin="round" stroke-linecap="butt" d="m490.1065 468.82114l280.94073 0l0 140.51944l-280.94073 0z" fill-rule="evenodd"/></g><g filter="url(#shadowFilter-p.13)"><use xlink:href="#p.13" transform="matrix(1.0 0.0 0.0 1.0 0.0 2.0)"/></g><defs><filter id="shadowFilter-p.13" filterUnits="userSpaceOnUse"><feGaussianBlur in="SourceAlpha" stdDeviation="36.5" result="blur"/><feComponentTransfer in="blur" color-interpolation-filters="sRGB"><feFuncR type="linear" slope="0" intercept="0.007843138"/><feFuncG type="linear" slope="0" intercept="0.3647059"/><feFuncB type="linear" slope="0" intercept="1.0"/><feFuncA type="linear" slope="0.31" intercept="0"/></feComponentTransfer></filter></defs><g id="p.13"><path fill="#000000" fill-opacity="0.0" d="m829.2412 468.82114l280.94067 0l0 140.51944l-280.94067 0z" fill-rule="evenodd"/><path stroke="#7dacff" stroke-width="1.0" stroke-linejoin="round" stroke-linecap="butt" d="m829.2412 468.82114l280.94067 0l0 140.51944l-280.94067 0z" fill-rule="evenodd"/></g><g filter="url(#shadowFilter-p.14)"><use xlink:href="#p.14" transform="matrix(1.0 0.0 0.0 1.0 0.0 2.0)"/></g><defs><filter id="shadowFilter-p.14" filterUnits="userSpaceOnUse"><feGaussianBlur in="SourceAlpha" stdDeviation="36.5" result="blur"/><feComponentTransfer in="blur" color-interpolation-filters="sRGB"><feFuncR type="linear" slope="0" intercept="0.007843138"/><feFuncG type="linear" slope="0" intercept="0.3647059"/><feFuncB type="linear" slope="0" intercept="1.0"/><feFuncA type="linear" slope="0.31" intercept="0"/></feComponentTransfer></filter></defs><g id="p.14"><path fill="#000000" fill-opacity="0.0" d="m1209.5327 229.047l0 280.9407l-140.51941 0l0 -280.9407z" fill-rule="evenodd"/><path stroke="#7dacff" stroke-width="1.0" stroke-linejoin="round" stroke-linecap="butt" d="m1209.5327 229.047l0 280.9407l-140.51941 0l0 -280.9407z" fill-rule="evenodd"/></g><g filter="url(#shadowFilter-p.15)"><use xlink:href="#p.15" transform="matrix(1.0 0.0 0.0 1.0 0.0 2.0)"/></g><defs><filter id="shadowFilter-p.15" filterUnits="userSpaceOnUse"><feGaussianBlur in="SourceAlpha" stdDeviation="36.5" result="blur"/><feComponentTransfer in="blur" color-interpolation-filters="sRGB"><feFuncR type="linear" slope="0" intercept="0.007843138"/><feFuncG type="linear" slope="0" intercept="0.3647059"/><feFuncB type="linear" slope="0" intercept="1.0"/><feFuncA type="linear" slope="0.31" intercept="0"/></feComponentTransfer></filter></defs><g id="p.15"><path fill="#000000" fill-opacity="0.0" d="m490.08926 -209.42778l268.8892 268.88916l-99.35773 99.35768l-268.88916 -268.8892z" fill-rule="evenodd"/><path stroke="#7dacff" stroke-width="1.0" stroke-linejoin="round" stroke-linecap="butt" d="m490.08926 -209.42778l268.8892 268.88916l-99.35773 99.35768l-268.88916 -268.8892z" fill-rule="evenodd"/></g><path fill="#000000" fill-opacity="0.0" d="m430.6855 -169.50348l738.9727 0l0 738.9728l-738.9727 0z" fill-rule="evenodd"/><path stroke="#7dacff" stroke-width="1.0" stroke-linejoin="round" stroke-linecap="butt" d="m430.6855 -169.50348l738.9727 0l0 738.9728l-738.9727 0z" fill-rule="evenodd"/><path fill="#000000" fill-opacity="0.0" d="m490.0668 -110.140175l620.2001 0l0 620.12646l-620.2001 0z" fill-rule="evenodd"/><path stroke="#7dacff" stroke-width="1.0" stroke-linejoin="round" stroke-linecap="butt" d="m490.0668 -110.140175l620.2001 0l0 620.12646l-620.2001 0z" fill-rule="evenodd"/><path fill="#000000" fill-opacity="0.0" d="m460.97278 497.85794l637.23425 -637.1606" fill-rule="evenodd"/><path stroke="#7dacff" stroke-width="1.0" stroke-linejoin="round" stroke-linecap="butt" d="m460.97278 497.85794l637.23425 -637.1606" fill-rule="evenodd"/><path fill="#000000" fill-opacity="0.0" d="m502.1235 539.00867l637.23413 -637.1606" fill-rule="evenodd"/><path stroke="#7dacff" stroke-width="1.0" stroke-linejoin="round" stroke-linecap="butt" d="m502.1235 539.00867l637.23413 -637.1606" fill-rule="evenodd"/><path fill="#000000" fill-opacity="0.0" d="m460.97278 -98.14467l637.23425 637.1606" fill-rule="evenodd"/><path stroke="#7dacff" stroke-width="1.0" stroke-linejoin="round" stroke-linecap="butt" d="m460.97278 -98.14467l637.23425 637.1606" fill-rule="evenodd"/><path fill="#000000" fill-opacity="0.0" d="m502.1235 -139.2954l637.23413 637.1606" fill-rule="evenodd"/><path stroke="#7dacff" stroke-width="1.0" stroke-linejoin="round" stroke-linecap="butt" d="m502.1235 -139.2954l637.23413 637.1606" fill-rule="evenodd"/><path fill="#000000" fill-opacity="0.0" d="m630.6311 129.89854l0 0c38.762695 -93.629654 146.08789 -138.1191 239.71759 -99.36995l0 0c44.962524 18.607998 80.688965 54.315163 99.319824 99.26633c18.63086 44.95117 18.640076 95.46417 0.02557373 140.42673l0 0c-38.762695 93.62964 -146.08795 138.11911 -239.71759 99.369934l0 0c-93.62964 -38.749146 -138.1081 -146.06337 -99.3454 -239.69304z" fill-rule="evenodd"/><path stroke="#7dacff" stroke-width="1.0" stroke-linejoin="round" stroke-linecap="butt" d="m630.6311 129.89854l0 0c38.762695 -93.629654 146.08789 -138.1191 239.71759 -99.36995l0 0c44.962524 18.607998 80.688965 54.315163 99.319824 99.26633c18.63086 44.95117 18.640076 95.46417 0.02557373 140.42673l0 0c-38.762695 93.62964 -146.08795 138.11911 -239.71759 99.369934l0 0c-93.62964 -38.749146 -138.1081 -146.06337 -99.3454 -239.69304z" fill-rule="evenodd"/><path fill="#000000" fill-opacity="0.0" d="m700.8042 199.96808l0 0c0 -54.873734 44.483948 -99.35768 99.35773 -99.35768l0 0c26.351257 0 51.62329 10.46801 70.25647 29.101181c18.633179 18.633179 29.101196 43.905197 29.101196 70.2565l0 0c0 54.873734 -44.483948 99.357666 -99.357666 99.357666l0 0c-54.87378 0 -99.35773 -44.483932 -99.35773 -99.357666z" fill-rule="evenodd"/><path stroke="#7dacff" stroke-width="1.0" stroke-linejoin="round" stroke-linecap="butt" d="m700.8042 199.96808l0 0c0 -54.873734 44.483948 -99.35768 99.35773 -99.35768l0 0c26.351257 0 51.62329 10.46801 70.25647 29.101181c18.633179 18.633179 29.101196 43.905197 29.101196 70.2565l0 0c0 54.873734 -44.483948 99.357666 -99.357666 99.357666l0 0c-54.87378 0 -99.35773 -44.483932 -99.35773 -99.357666z" fill-rule="evenodd"/><path fill="#000000" fill-opacity="0.0" d="m490.13922 468.8007l0 0c11.359711 -11.359741 29.782959 -11.354248 41.149475 0.012268066l0 0c5.458374 5.458374 8.526184 12.86026 8.528503 20.57727c0.0022583008 7.717041 -3.0610962 15.117096 -8.516235 20.572235l0 0c-11.359741 11.359741 -29.782959 11.354248 -41.149475 -0.012298584l0 0c-11.366516 -11.366486 -11.372009 -29.789764 -0.012268066 -41.149475z" fill-rule="evenodd"/><path stroke="#7dacff" stroke-width="1.0" stroke-linejoin="round" stroke-linecap="butt" d="m490.13922 468.8007l0 0c11.359711 -11.359741 29.782959 -11.354248 41.149475 0.012268066l0 0c5.458374 5.458374 8.526184 12.86026 8.528503 20.57727c0.0022583008 7.717041 -3.0610962 15.117096 -8.516235 20.572235l0 0c-11.359741 11.359741 -29.782959 11.354248 -41.149475 -0.012298584l0 0c-11.366516 -11.366486 -11.372009 -29.789764 -0.012268066 -41.149475z" fill-rule="evenodd"/><path fill="#000000" fill-opacity="0.0" d="m519.25037 439.69662l0 0c11.359741 -11.359741 29.78302 -11.354218 41.149536 0.012268066l0 0c5.458374 5.4584045 8.526184 12.86026 8.528442 20.577301c0.002319336 7.7170105 -3.0610352 15.117065 -8.516174 20.572205l0 0c-11.359741 11.359741 -29.78302 11.354248 -41.149475 -0.012268066l0 0c-11.366547 -11.366516 -11.37204 -29.789764 -0.012329102 -41.149506z" fill-rule="evenodd"/><path stroke="#7dacff" stroke-width="1.0" stroke-linejoin="round" stroke-linecap="butt" d="m519.25037 439.69662l0 0c11.359741 -11.359741 29.78302 -11.354218 41.149536 0.012268066l0 0c5.458374 5.4584045 8.526184 12.86026 8.528442 20.577301c0.002319336 7.7170105 -3.0610352 15.117065 -8.516174 20.572205l0 0c-11.359741 11.359741 -29.78302 11.354248 -41.149475 -0.012268066l0 0c-11.366547 -11.366516 -11.37204 -29.789764 -0.012329102 -41.149506z" fill-rule="evenodd"/><path fill="#000000" fill-opacity="0.0" d="m1068.993 509.9671l0 0c-11.359741 -11.359741 -11.354248 -29.78299 0.012329102 -41.149506l0 0c5.458374 -5.4584045 12.8602295 -8.526184 20.57727 -8.528473c7.717041 -0.002319336 15.117065 3.0610657 20.572144 8.516205l0 0c11.359741 11.359711 11.354248 29.78299 -0.012207031 41.149475l0 0c-11.366577 11.366547 -29.789795 11.37204 -41.149536 0.012298584z" fill-rule="evenodd"/><path stroke="#7dacff" stroke-width="1.0" stroke-linejoin="round" stroke-linecap="butt" d="m1068.993 509.9671l0 0c-11.359741 -11.359741 -11.354248 -29.78299 0.012329102 -41.149506l0 0c5.458374 -5.4584045 12.8602295 -8.526184 20.57727 -8.528473c7.717041 -0.002319336 15.117065 3.0610657 20.572144 8.516205l0 0c11.359741 11.359711 11.354248 29.78299 -0.012207031 41.149475l0 0c-11.366577 11.366547 -29.789795 11.37204 -41.149536 0.012298584z" fill-rule="evenodd"/><path fill="#000000" fill-opacity="0.0" d="m1039.889 480.8559l0 0c-11.359741 -11.359711 -11.354248 -29.782959 0.012207031 -41.149475l0 0c5.458496 -5.4584045 12.860352 -8.526184 20.577393 -8.528473c7.716919 -0.002319336 15.117065 3.0610657 20.572144 8.516205l0 0c11.359741 11.359711 11.354248 29.78299 -0.012207031 41.149475l0 0c-11.366577 11.366516 -29.789795 11.372009 -41.149536 0.012268066z" fill-rule="evenodd"/><path stroke="#7dacff" stroke-width="1.0" stroke-linejoin="round" stroke-linecap="butt" d="m1039.889 480.8559l0 0c-11.359741 -11.359711 -11.354248 -29.782959 0.012207031 -41.149475l0 0c5.458496 -5.4584045 12.860352 -8.526184 20.577393 -8.528473c7.716919 -0.002319336 15.117065 3.0610657 20.572144 8.516205l0 0c11.359741 11.359711 11.354248 29.78299 -0.012207031 41.149475l0 0c-11.366577 11.366516 -29.789795 11.372009 -41.149536 0.012268066z" fill-rule="evenodd"/><path fill="#000000" fill-opacity="0.0" d="m1110.1584 -68.87024l0 0c-11.359741 11.359726 -29.782959 11.354233 -41.149414 -0.012275696l0 0c-5.458496 -5.4583893 -8.526245 -12.86026 -8.528564 -20.577286c-0.002319336 -7.7170334 3.0611572 -15.117073 8.516235 -20.572212l0 0c11.359741 -11.359726 29.782959 -11.354233 41.149536 0.012275696l0 0c11.366455 11.3665085 11.371948 29.789764 0.012207031 41.149498z" fill-rule="evenodd"/><path stroke="#7dacff" stroke-width="1.0" stroke-linejoin="round" stroke-linecap="butt" d="m1110.1584 -68.87024l0 0c-11.359741 11.359726 -29.782959 11.354233 -41.149414 -0.012275696l0 0c-5.458496 -5.4583893 -8.526245 -12.86026 -8.528564 -20.577286c-0.002319336 -7.7170334 3.0611572 -15.117073 8.516235 -20.572212l0 0c11.359741 -11.359726 29.782959 -11.354233 41.149536 0.012275696l0 0c11.366455 11.3665085 11.371948 29.789764 0.012207031 41.149498z" fill-rule="evenodd"/><path fill="#000000" fill-opacity="0.0" d="m1081.0472 -39.76619l0 0c-11.359619 11.35973 -29.782959 11.354235 -41.149414 -0.012271881l0 0c-5.458374 -5.4583893 -8.526245 -12.860264 -8.528442 -20.57729c-0.002319336 -7.7170258 3.0610352 -15.117073 8.516113 -20.572205l0 0c11.359741 -11.359734 29.782959 -11.35424 41.149536 0.012268066l0 0c11.366455 11.3665085 11.371948 29.789768 0.012207031 41.149498z" fill-rule="evenodd"/><path stroke="#7dacff" stroke-width="1.0" stroke-linejoin="round" stroke-linecap="butt" d="m1081.0472 -39.76619l0 0c-11.359619 11.35973 -29.782959 11.354235 -41.149414 -0.012271881l0 0c-5.458374 -5.4583893 -8.526245 -12.860264 -8.528442 -20.57729c-0.002319336 -7.7170258 3.0610352 -15.117073 8.516113 -20.572205l0 0c11.359741 -11.359734 29.782959 -11.35424 41.149536 0.012268066l0 0c11.366455 11.3665085 11.371948 29.789768 0.012207031 41.149498z" fill-rule="evenodd"/><path fill="#000000" fill-opacity="0.0" d="m531.3046 -110.03665l0 0c11.359741 11.359734 11.354248 29.78299 -0.012268066 41.149498l0 0c-5.458435 5.4583855 -12.860291 8.526173 -20.577301 8.528473c-7.717041 0.0023002625 -15.117065 -3.0610695 -20.572205 -8.516205l0 0c-11.359741 -11.359726 -11.354248 -29.782982 0.012268066 -41.14949l0 0c11.366516 -11.3665085 29.789764 -11.372002 41.149506 -0.012275696z" fill-rule="evenodd"/><path stroke="#7dacff" stroke-width="1.0" stroke-linejoin="round" stroke-linecap="butt" d="m531.3046 -110.03665l0 0c11.359741 11.359734 11.354248 29.78299 -0.012268066 41.149498l0 0c-5.458435 5.4583855 -12.860291 8.526173 -20.577301 8.528473c-7.717041 0.0023002625 -15.117065 -3.0610695 -20.572205 -8.516205l0 0c-11.359741 -11.359726 -11.354248 -29.782982 0.012268066 -41.14949l0 0c11.366516 -11.3665085 29.789764 -11.372002 41.149506 -0.012275696z" fill-rule="evenodd"/><path fill="#000000" fill-opacity="0.0" d="m560.4087 -80.925476l0 0c11.35968 11.359734 11.354187 29.78299 -0.012268066 41.149498l0 0c-5.458435 5.4583893 -12.860291 8.526175 -20.577332 8.528475c-7.717041 0.0023021698 -15.117065 -3.0610676 -20.572205 -8.516203l0 0c-11.359711 -11.35973 -11.354218 -29.782986 0.012268066 -41.149494l0 0c11.366516 -11.3665085 29.789795 -11.372002 41.149536 -0.012275696z" fill-rule="evenodd"/><path stroke="#7dacff" stroke-width="1.0" stroke-linejoin="round" stroke-linecap="butt" d="m560.4087 -80.925476l0 0c11.35968 11.359734 11.354187 29.78299 -0.012268066 41.149498l0 0c-5.458435 5.4583893 -12.860291 8.526175 -20.577332 8.528475c-7.717041 0.0023021698 -15.117065 -3.0610676 -20.572205 -8.516203l0 0c-11.359711 -11.35973 -11.354218 -29.782986 0.012268066 -41.149494l0 0c11.366516 -11.3665085 29.789795 -11.372002 41.149536 -0.012275696z" fill-rule="evenodd"/><path fill="#000000" fill-opacity="0.0" d="m630.6071 468.9509l0 0c38.762695 -93.622894 146.08246 -138.10684 239.70532 -99.357666l0 0c44.95929 18.607971 80.68262 54.313843 99.31116 99.262726c18.628601 44.948853 18.636475 95.45874 0.021972656 140.41803l0 0c-38.762695 93.62286 -146.0824 138.10681 -239.70532 99.357666l0 0c-93.62286 -38.749146 -138.09583 -146.05786 -99.33313 -239.68076z" fill-rule="evenodd"/><path stroke="#7dacff" stroke-width="1.0" stroke-linejoin="round" stroke-linecap="butt" d="m630.6071 468.9509l0 0c38.762695 -93.622894 146.08246 -138.10684 239.70532 -99.357666l0 0c44.95929 18.607971 80.68262 54.313843 99.31116 99.262726c18.628601 44.948853 18.636475 95.45874 0.021972656 140.41803l0 0c-38.762695 93.62286 -146.0824 138.10681 -239.70532 99.357666l0 0c-93.62286 -38.749146 -138.09583 -146.05786 -99.33313 -239.68076z" fill-rule="evenodd"/><path fill="#000000" fill-opacity="0.0" d="m431.87863 199.9493l0 0c0 -16.070358 13.027588 -29.097961 29.097961 -29.097961l0 0c7.7172546 0 15.118439 3.0656738 20.575348 8.522598c5.4569397 5.4569244 8.522614 12.858093 8.522614 20.575363l0 0c0 16.070358 -13.027618 29.097946 -29.097961 29.097946l0 0c-16.070374 0 -29.097961 -13.027588 -29.097961 -29.097946z" fill-rule="evenodd"/><path stroke="#7dacff" stroke-width="1.0" stroke-linejoin="round" stroke-linecap="butt" d="m431.87863 199.9493l0 0c0 -16.070358 13.027588 -29.097961 29.097961 -29.097961l0 0c7.7172546 0 15.118439 3.0656738 20.575348 8.522598c5.4569397 5.4569244 8.522614 12.858093 8.522614 20.575363l0 0c0 16.070358 -13.027618 29.097946 -29.097961 29.097946l0 0c-16.070374 0 -29.097961 -13.027588 -29.097961 -29.097946z" fill-rule="evenodd"/><path fill="#000000" fill-opacity="0.0" d="m1110.1718 199.9493l0 0c0 -16.070358 13.027588 -29.097961 29.098022 -29.097961l0 0c7.717285 0 15.118408 3.0656738 20.575317 8.522598c5.456909 5.4569244 8.522583 12.858093 8.522583 20.575363l0 0c0 16.070358 -13.027588 29.097946 -29.0979 29.097946l0 0c-16.070435 0 -29.098022 -13.027588 -29.098022 -29.097946z" fill-rule="evenodd"/><path stroke="#7dacff" stroke-width="1.0" stroke-linejoin="round" stroke-linecap="butt" d="m1110.1718 199.9493l0 0c0 -16.070358 13.027588 -29.097961 29.098022 -29.097961l0 0c7.717285 0 15.118408 3.0656738 20.575317 8.522598c5.456909 5.4569244 8.522583 12.858093 8.522583 20.575363l0 0c0 16.070358 -13.027588 29.097946 -29.0979 29.097946l0 0c-16.070435 0 -29.098022 -13.027588 -29.098022 -29.097946z" fill-rule="evenodd"/><path fill="#000000" fill-opacity="0.0" d="m709.26776 150.27257l0 0c-11.359741 -11.359726 -11.354248 -29.782982 0.012268066 -41.14949l0 0c5.458374 -5.4583893 12.860291 -8.526176 20.57727 -8.528481c7.717041 -0.0022964478 15.117126 3.0610733 20.572266 8.516205l0 0c11.35968 11.359734 11.354187 29.782982 -0.012329102 41.149498l0 0c-11.366455 11.366501 -29.789734 11.371994 -41.149475 0.012268066z" fill-rule="evenodd"/><path stroke="#7dacff" stroke-width="1.0" stroke-linejoin="round" stroke-linecap="butt" d="m709.26776 150.27257l0 0c-11.359741 -11.359726 -11.354248 -29.782982 0.012268066 -41.14949l0 0c5.458374 -5.4583893 12.860291 -8.526176 20.57727 -8.528481c7.717041 -0.0022964478 15.117126 3.0610733 20.572266 8.516205l0 0c11.35968 11.359734 11.354187 29.782982 -0.012329102 41.149498l0 0c-11.366455 11.366501 -29.789734 11.371994 -41.149475 0.012268066z" fill-rule="evenodd"/><path fill="#000000" fill-opacity="0.0" d="m849.7937 290.7798l0 0c-11.359741 -11.359741 -11.354248 -29.78299 0.012268066 -41.149506l0 0c5.458374 -5.4583893 12.8602295 -8.526169 20.57727 -8.528473c7.717041 -0.0023040771 15.117065 3.0610657 20.572205 8.516205l0 0c11.359741 11.359741 11.354248 29.78299 -0.012268066 41.149506l0 0c-11.366516 11.366486 -29.789734 11.371979 -41.149475 0.012268066z" fill-rule="evenodd"/><path stroke="#7dacff" stroke-width="1.0" stroke-linejoin="round" stroke-linecap="butt" d="m849.7937 290.7798l0 0c-11.359741 -11.359741 -11.354248 -29.78299 0.012268066 -41.149506l0 0c5.458374 -5.4583893 12.8602295 -8.526169 20.57727 -8.528473c7.717041 -0.0023040771 15.117065 3.0610657 20.572205 8.516205l0 0c11.359741 11.359741 11.354248 29.78299 -0.012268066 41.149506l0 0c-11.366516 11.366486 -29.789734 11.371979 -41.149475 0.012268066z" fill-rule="evenodd"/><path fill="#000000" fill-opacity="0.0" d="m1151.3168 199.9493l0 0c0 -16.070358 13.027588 -29.097961 29.098022 -29.097961l0 0c7.717163 0 15.118408 3.0656738 20.575317 8.522598c5.456909 5.4569244 8.522583 12.858093 8.522583 20.575363l0 0c0 16.070358 -13.027588 29.097946 -29.0979 29.097946l0 0c-16.070435 0 -29.098022 -13.027588 -29.098022 -29.097946z" fill-rule="evenodd"/><path stroke="#7dacff" stroke-width="1.0" stroke-linejoin="round" stroke-linecap="butt" d="m1151.3168 199.9493l0 0c0 -16.070358 13.027588 -29.097961 29.098022 -29.097961l0 0c7.717163 0 15.118408 3.0656738 20.575317 8.522598c5.456909 5.4569244 8.522583 12.858093 8.522583 20.575363l0 0c0 16.070358 -13.027588 29.097946 -29.0979 29.097946l0 0c-16.070435 0 -29.098022 -13.027588 -29.098022 -29.097946z" fill-rule="evenodd"/><path fill="#000000" fill-opacity="0.0" d="m1069.0269 199.9493l0 0c0 -16.070358 13.027588 -29.097961 29.0979 -29.097961l0 0c7.717285 0 15.118408 3.0656738 20.57544 8.522598c5.456909 5.4569244 8.522583 12.858093 8.522583 20.575363l0 0c0 16.070358 -13.027588 29.097946 -29.098022 29.097946l0 0c-16.070312 0 -29.0979 -13.027588 -29.0979 -29.097946z" fill-rule="evenodd"/><path stroke="#7dacff" stroke-width="1.0" stroke-linejoin="round" stroke-linecap="butt" d="m1069.0269 199.9493l0 0c0 -16.070358 13.027588 -29.097961 29.0979 -29.097961l0 0c7.717285 0 15.118408 3.0656738 20.57544 8.522598c5.456909 5.4569244 8.522583 12.858093 8.522583 20.575363l0 0c0 16.070358 -13.027588 29.097946 -29.098022 29.097946l0 0c-16.070312 0 -29.0979 -13.027588 -29.0979 -29.097946z" fill-rule="evenodd"/><path fill="#000000" fill-opacity="0.0" d="m390.76938 199.9493l0 0c0 -16.070358 13.027618 -29.097961 29.097961 -29.097961l0 0c7.7172546 0 15.118439 3.0656738 20.575378 8.522598c5.456909 5.4569244 8.522583 12.858093 8.522583 20.575363l0 0c0 16.070358 -13.027588 29.097946 -29.097961 29.097946l0 0c-16.070343 0 -29.097961 -13.027588 -29.097961 -29.097946z" fill-rule="evenodd"/><path stroke="#7dacff" stroke-width="1.0" stroke-linejoin="round" stroke-linecap="butt" d="m390.76938 199.9493l0 0c0 -16.070358 13.027618 -29.097961 29.097961 -29.097961l0 0c7.7172546 0 15.118439 3.0656738 20.575378 8.522598c5.456909 5.4569244 8.522583 12.858093 8.522583 20.575363l0 0c0 16.070358 -13.027588 29.097946 -29.097961 29.097946l0 0c-16.070343 0 -29.097961 -13.027588 -29.097961 -29.097946z" fill-rule="evenodd"/><path fill="#000000" fill-opacity="0.0" d="m473.02362 199.9493l0 0c0 -16.070358 13.027588 -29.097961 29.09793 -29.097961l0 0c7.717285 0 15.118439 3.0656738 20.575348 8.522598c5.45697 5.4569244 8.522644 12.858093 8.522644 20.575363l0 0c0 16.070358 -13.027649 29.097946 -29.097992 29.097946l0 0c-16.070343 0 -29.09793 -13.027588 -29.09793 -29.097946z" fill-rule="evenodd"/><path stroke="#7dacff" stroke-width="1.0" stroke-linejoin="round" stroke-linecap="butt" d="m473.02362 199.9493l0 0c0 -16.070358 13.027588 -29.097961 29.09793 -29.097961l0 0c7.717285 0 15.118439 3.0656738 20.575348 8.522598c5.45697 5.4569244 8.522644 12.858093 8.522644 20.575363l0 0c0 16.070358 -13.027649 29.097946 -29.097992 29.097946l0 0c-16.070343 0 -29.09793 -13.027588 -29.09793 -29.097946z" fill-rule="evenodd"/><path fill="#000000" fill-opacity="0.0" d="m771.0252 497.97556l0 0c0 -16.070343 13.027588 -29.09793 29.097961 -29.09793l0 0c7.717285 0 15.118469 3.0656433 20.575378 8.522583c5.456909 5.456909 8.522583 12.858093 8.522583 20.575348l0 0c0 16.070343 -13.027588 29.097992 -29.097961 29.097992l0 0c-16.070374 0 -29.097961 -13.027649 -29.097961 -29.097992z" fill-rule="evenodd"/><path stroke="#7dacff" stroke-width="1.0" stroke-linejoin="round" stroke-linecap="butt" d="m771.0252 497.97556l0 0c0 -16.070343 13.027588 -29.09793 29.097961 -29.09793l0 0c7.717285 0 15.118469 3.0656433 20.575378 8.522583c5.456909 5.456909 8.522583 12.858093 8.522583 20.575348l0 0c0 16.070343 -13.027588 29.097992 -29.097961 29.097992l0 0c-16.070374 0 -29.097961 -13.027649 -29.097961 -29.097992z" fill-rule="evenodd"/><path fill="#000000" fill-opacity="0.0" d="m771.0252 580.2536l0 0c0 -16.070374 13.027588 -29.097961 29.097961 -29.097961l0 0c7.717285 0 15.118469 3.0656738 20.575378 8.522583c5.456909 5.45697 8.522583 12.858154 8.522583 20.575378l0 0c0 16.070374 -13.027588 29.097961 -29.097961 29.097961l0 0c-16.070374 0 -29.097961 -13.027588 -29.097961 -29.097961z" fill-rule="evenodd"/><path stroke="#7dacff" stroke-width="1.0" stroke-linejoin="round" stroke-linecap="butt" d="m771.0252 580.2536l0 0c0 -16.070374 13.027588 -29.097961 29.097961 -29.097961l0 0c7.717285 0 15.118469 3.0656738 20.575378 8.522583c5.456909 5.45697 8.522583 12.858154 8.522583 20.575378l0 0c0 16.070374 -13.027588 29.097961 -29.097961 29.097961l0 0c-16.070374 0 -29.097961 -13.027588 -29.097961 -29.097961z" fill-rule="evenodd"/><path fill="#000000" fill-opacity="0.0" d="m771.0252 539.1171l0 0c0 -16.070312 13.027588 -29.09793 29.097961 -29.09793l0 0c7.717285 0 15.118469 3.0656433 20.575378 8.522614c5.456909 5.456909 8.522583 12.858093 8.522583 20.575317l0 0c0 16.070374 -13.027588 29.097961 -29.097961 29.097961l0 0c-16.070374 0 -29.097961 -13.027588 -29.097961 -29.097961z" fill-rule="evenodd"/><path stroke="#7dacff" stroke-width="1.0" stroke-linejoin="round" stroke-linecap="butt" d="m771.0252 539.1171l0 0c0 -16.070312 13.027588 -29.09793 29.097961 -29.09793l0 0c7.717285 0 15.118469 3.0656433 20.575378 8.522614c5.456909 5.456909 8.522583 12.858093 8.522583 20.575317l0 0c0 16.070374 -13.027588 29.097961 -29.097961 29.097961l0 0c-16.070374 0 -29.097961 -13.027588 -29.097961 -29.097961z" fill-rule="evenodd"/><path fill="#000000" fill-opacity="0.0" d="m277.60455 539.1172l1045.1455 0" fill-rule="evenodd"/><path stroke="#7dacff" stroke-width="1.0" stroke-linejoin="round" stroke-linecap="butt" d="m277.60455 539.1172l1045.1455 0" fill-rule="evenodd"/><path fill="#000000" fill-opacity="0.0" d="m461.0004 -322.64908l0 1045.4893" fill-rule="evenodd"/><path stroke="#7dacff" stroke-width="1.0" stroke-linejoin="round" stroke-linecap="butt" d="m461.0004 -322.64908l0 1045.4893" fill-rule="evenodd"/><path fill="#000000" fill-opacity="0.0" d="m1139.3231 -322.64908l0 1045.4893" fill-rule="evenodd"/><path stroke="#7dacff" stroke-width="1.0" stroke-linejoin="round" stroke-linecap="butt" d="m1139.3231 -322.64908l0 1045.4893" fill-rule="evenodd"/><path fill="#000000" fill-opacity="0.0" d="m176.72177 199.97281l1246.88 0" fill-rule="evenodd"/><path stroke="#7dacff" stroke-width="1.0" stroke-linejoin="round" stroke-linecap="butt" d="m176.72177 199.97281l1246.88 0" fill-rule="evenodd"/><path fill="#000000" fill-opacity="0.0" d="m800.1618 823.4128l0 -1246.88" fill-rule="evenodd"/><path stroke="#7dacff" stroke-width="1.0" stroke-linejoin="round" stroke-linecap="butt" d="m800.1618 823.4128l0 -1246.88" fill-rule="evenodd"/><path fill="#000000" fill-opacity="0.0" d="m452.45016 518.4333l0 0c0 -16.070343 13.027618 -29.097961 29.097961 -29.097961l0 0c7.7172546 0 15.118439 3.0656738 20.575378 8.522614c5.456909 5.456909 8.522583 12.858093 8.522583 20.575348l0 0c0 16.070374 -13.027588 29.097961 -29.097961 29.097961l0 0c-16.070343 0 -29.097961 -13.027588 -29.097961 -29.097961z" fill-rule="evenodd"/><path stroke="#7dacff" stroke-width="1.0" stroke-linejoin="round" stroke-linecap="butt" d="m452.45016 518.4333l0 0c0 -16.070343 13.027618 -29.097961 29.097961 -29.097961l0 0c7.7172546 0 15.118439 3.0656738 20.575378 8.522614c5.456909 5.456909 8.522583 12.858093 8.522583 20.575348l0 0c0 16.070374 -13.027588 29.097961 -29.097961 29.097961l0 0c-16.070343 0 -29.097961 -13.027588 -29.097961 -29.097961z" fill-rule="evenodd"/><path fill="#000000" fill-opacity="0.0" d="m1089.6874 518.4333l0 0c0 -16.070343 13.027588 -29.097961 29.0979 -29.097961l0 0c7.717285 0 15.118408 3.0656738 20.57544 8.522614c5.456909 5.456909 8.522583 12.858093 8.522583 20.575348l0 0c0 16.070374 -13.027588 29.097961 -29.098022 29.097961l0 0c-16.070312 0 -29.0979 -13.027588 -29.0979 -29.097961z" fill-rule="evenodd"/><path stroke="#7dacff" stroke-width="1.0" stroke-linejoin="round" stroke-linecap="butt" d="m1089.6874 518.4333l0 0c0 -16.070343 13.027588 -29.097961 29.0979 -29.097961l0 0c7.717285 0 15.118408 3.0656738 20.57544 8.522614c5.456909 5.456909 8.522583 12.858093 8.522583 20.575348l0 0c0 16.070374 -13.027588 29.097961 -29.098022 29.097961l0 0c-16.070312 0 -29.0979 -13.027588 -29.0979 -29.097961z" fill-rule="evenodd"/><path fill="#fcfdff" d="m872.09155 305.8211l0 0c0 -18.731506 15.184937 -33.916412 33.916443 -33.916412l0 0c8.995178 0 17.621948 3.5733337 23.982483 9.933899c6.3605957 6.360565 9.933899 14.987335 9.933899 23.982513l0 0c0 18.731506 -15.1848755 33.916412 -33.91638 33.916412l0 0c-18.731506 0 -33.916443 -15.184906 -33.916443 -33.916412z" fill-rule="evenodd"/><path fill="#ffffff" d="m660.43933 305.8211l0 0c0 -18.731506 15.1848755 -33.916412 33.91638 -33.916412l0 0c8.995239 0 17.62201 3.5733337 23.982544 9.933899c6.3605347 6.360565 9.933899 14.987335 9.933899 23.982513l0 0c0 18.731506 -15.184937 33.916412 -33.916443 33.916412l0 0c-18.731506 0 -33.91638 -15.184906 -33.91638 -33.916412z" fill-rule="evenodd"/><path fill="#fcfdff" d="m848.1468 214.04634l91.78198 91.782l-33.909424 33.909424l-91.78198 -91.78198z" fill-rule="evenodd"/><path fill="#ffffff" d="m872.09155 94.16189l0 0c0 -18.731514 15.184937 -33.9164 33.916443 -33.9164l0 0c8.995178 0 17.621948 3.5733223 23.982483 9.93388c6.3605957 6.360565 9.933899 14.987335 9.933899 23.982521l0 0c0 18.731514 -15.1848755 33.916405 -33.91638 33.916405l0 0c-18.731506 0 -33.916443 -15.184891 -33.916443 -33.916405z" fill-rule="evenodd"/><path fill="#ffffff" d="m660.4467 305.81964l245.56287 -245.56285l33.909424 33.90943l-245.56287 245.56284z" fill-rule="evenodd"/><path fill="#fcfdff" d="m660.43933 94.16189l0 0c0 -18.731514 15.1848755 -33.9164 33.91638 -33.9164l0 0c8.995239 0 17.62201 3.5733223 23.982544 9.93388c6.3605347 6.360565 9.933899 14.987335 9.933899 23.982521l0 0c0 18.731514 -15.184937 33.916405 -33.916443 33.916405l0 0c-18.731506 0 -33.91638 -15.184891 -33.91638 -33.916405z" fill-rule="evenodd"/><path fill="#fcfdff" d="m694.3491 60.252136l91.78198 91.782l-33.909424 33.90944l-91.78198 -91.782005z" fill-rule="evenodd"/><path fill="#fcfdff" d="m694.355 60.245747l95.89435 0l0 47.96111l-95.89435 0z" fill-rule="evenodd"/><path fill="#ffffff" d="m810.11755 60.245747l95.89435 0l0 47.96111l-95.89435 0z" fill-rule="evenodd"/><path fill="#fcfdff" d="m708.3956 94.165054l0 95.89435l-47.96112 0l0 -95.89435z" fill-rule="evenodd"/><path fill="#ffffff" d="m939.9289 94.165054l0 95.89435l-47.96112 0l0 -95.89435z" fill-rule="evenodd"/><path fill="#ffffff" d="m708.3956 209.92412l0 95.89433l-47.96112 0l0 -95.89433z" fill-rule="evenodd"/><path fill="#ffffff" d="m694.355 291.77026l95.89435 0l0 47.96112l-95.89435 0z" fill-rule="evenodd"/><path fill="#fcfdff" d="m810.11755 291.77026l95.89435 0l0 47.96112l-95.89435 0z" fill-rule="evenodd"/><path fill="#fcfdff" d="m939.9289 209.92412l0 95.89433l-47.96112 0l0 -95.89433z" fill-rule="evenodd"/></g></svg>