<svg version="1.1" viewBox="0.0 0.0 2000.0 2000.0" fill="none" stroke="none" stroke-linecap="square" stroke-miterlimit="10" xmlns:xlink="http://www.w3.org/1999/xlink" xmlns="http://www.w3.org/2000/svg"><clipPath id="g34ec89ade1e_0_0.0"><path d="m0 0l2000.0 0l0 2000.0l-2000.0 0l0 -2000.0z" clip-rule="nonzero"/></clipPath><g clip-path="url(#g34ec89ade1e_0_0.0)"><path fill="#025dff" d="m0 0l2000.0 0l0 2000.0l-2000.0 0z" fill-rule="evenodd"/><path fill="#000000" fill-opacity="0.0" d="m727.8276 343.51993l0 0c62.169006 -150.16057 234.29614 -221.50592 384.45673 -159.35432l0 0c72.10962 29.846252 129.40613 87.115524 159.28503 159.20924c29.878784 72.09369 29.892334 153.1063 0.037719727 225.21597l0 0c-62.168945 150.16052 -234.29602 221.50592 -384.45667 159.35431l0 0c-150.16052 -62.15161 -221.49182 -234.26462 -159.32281 -384.4252z" fill-rule="evenodd"/><path stroke="#7dacff" stroke-width="1.0" stroke-linejoin="round" stroke-linecap="butt" d="m727.8276 343.51993l0 0c62.169006 -150.16057 234.29614 -221.50592 384.45673 -159.35432l0 0c72.10962 29.846252 129.40613 87.115524 159.28503 159.20924c29.878784 72.09369 29.892334 153.1063 0.037719727 225.21597l0 0c-62.168945 150.16052 -234.29602 221.50592 -384.45667 159.35431l0 0c-150.16052 -62.15161 -221.49182 -234.26462 -159.32281 -384.4252z" fill-rule="evenodd"/><path fill="#000000" fill-opacity="0.0" d="m343.34518 184.24931l0 0c150.1084 -62.27336 322.2778 8.938049 384.55118 159.05513l0 0c29.904724 72.088776 29.949158 153.10455 0.12347412 225.22485c-29.825684 72.1203 -87.07825 129.43732 -159.16284 159.34204l0 0c-150.10837 62.273376 -322.2778 -8.937988 -384.55118 -159.05511l0 0c-62.27336 -150.11707 8.9309845 -322.29352 159.03937 -384.5669z" fill-rule="evenodd"/><path stroke="#7dacff" stroke-width="1.0" stroke-linejoin="round" stroke-linecap="butt" d="m343.34518 184.24931l0 0c150.1084 -62.27336 322.2778 8.938049 384.55118 159.05513l0 0c29.904724 72.088776 29.949158 153.10455 0.12347412 225.22485c-29.825684 72.1203 -87.07825 129.43732 -159.16284 159.34204l0 0c-150.10837 62.273376 -322.2778 -8.937988 -384.55118 -159.05511l0 0c-62.27336 -150.11707 8.9309845 -322.29352 159.03937 -384.5669z" fill-rule="evenodd"/><path fill="#000000" fill-opacity="0.0" d="m1271.9978 887.56866l0 0c62.168945 -150.16052 234.29614 -221.50592 384.45667 -159.35431l0 0c72.10962 29.846252 129.40613 87.11554 159.28503 159.20923c29.878784 72.09375 29.892456 153.10632 0.037841797 225.21594l0 0c-62.169067 150.16064 -234.29614 221.50598 -384.4568 159.35437l0 0c-150.16052 -62.15161 -221.49182 -234.26465 -159.32275 -384.42523z" fill-rule="evenodd"/><path stroke="#7dacff" stroke-width="1.0" stroke-linejoin="round" stroke-linecap="butt" d="m1271.9978 887.56866l0 0c62.168945 -150.16052 234.29614 -221.50592 384.45667 -159.35431l0 0c72.10962 29.846252 129.40613 87.11554 159.28503 159.20923c29.878784 72.09375 29.892456 153.10632 0.037841797 225.21594l0 0c-62.169067 150.16064 -234.29614 221.50598 -384.4568 159.35437l0 0c-150.16052 -62.15161 -221.49182 -234.26465 -159.32275 -384.42523z" fill-rule="evenodd"/><path fill="#000000" fill-opacity="0.0" d="m343.75146 503.0606l0 0c62.169006 -150.16055 234.29614 -221.50592 384.45673 -159.35431l0 0c72.10962 29.846252 129.40613 87.11551 159.28497 159.20923c29.878845 72.09369 29.892456 153.10632 0.037841797 225.21594l0 0c-62.169006 150.16058 -234.29614 221.50592 -384.4567 159.35437l0 0c-150.16058 -62.15161 -221.49185 -234.26465 -159.32285 -384.42523z" fill-rule="evenodd"/><path stroke="#7dacff" stroke-width="1.0" stroke-linejoin="round" stroke-linecap="butt" d="m343.75146 503.0606l0 0c62.169006 -150.16055 234.29614 -221.50592 384.45673 -159.35431l0 0c72.10962 29.846252 129.40613 87.11551 159.28497 159.20923c29.878845 72.09369 29.892456 153.10632 0.037841797 225.21594l0 0c-62.169006 150.16058 -234.29614 221.50592 -384.4567 159.35437l0 0c-150.16058 -62.15161 -221.49185 -234.26465 -159.32285 -384.42523z" fill-rule="evenodd"/><path fill="#000000" fill-opacity="0.0" d="m184.21414 887.4211l0 0c62.16899 -150.16058 234.29611 -221.50592 384.4567 -159.35431l0 0c72.10962 29.846252 129.40619 87.11554 159.28497 159.20923c29.878845 72.09369 29.892456 153.10632 0.037841797 225.21594l0 0c-62.169006 150.16064 -234.29611 221.50598 -384.45667 159.35437l0 0c-150.16058 -62.15161 -221.49185 -234.26465 -159.32285 -384.42523z" fill-rule="evenodd"/><path stroke="#7dacff" stroke-width="1.0" stroke-linejoin="round" stroke-linecap="butt" d="m184.21414 887.4211l0 0c62.16899 -150.16058 234.29611 -221.50592 384.4567 -159.35431l0 0c72.10962 29.846252 129.40619 87.11554 159.28497 159.20923c29.878845 72.09369 29.892456 153.10632 0.037841797 225.21594l0 0c-62.169006 150.16064 -234.29611 221.50598 -384.45667 159.35437l0 0c-150.16058 -62.15161 -221.49185 -234.26465 -159.32285 -384.42523z" fill-rule="evenodd"/><path fill="#000000" fill-opacity="0.0" d="m184.21414 1431.4071l0 0c62.16899 -150.16064 234.29611 -221.50598 384.4567 -159.35437l0 0c72.10962 29.846313 129.40619 87.11548 159.28497 159.20923c29.878845 72.09375 29.892456 153.10632 0.037841797 225.21594l0 0c-62.169006 150.16064 -234.29611 221.50598 -384.45667 159.35437l0 0c-150.16058 -62.15161 -221.49185 -234.26465 -159.32285 -384.42517z" fill-rule="evenodd"/><path stroke="#7dacff" stroke-width="1.0" stroke-linejoin="round" stroke-linecap="butt" d="m184.21414 1431.4071l0 0c62.16899 -150.16064 234.29611 -221.50598 384.4567 -159.35437l0 0c72.10962 29.846313 129.40619 87.11548 159.28497 159.20923c29.878845 72.09375 29.892456 153.10632 0.037841797 225.21594l0 0c-62.169006 150.16064 -234.29611 221.50598 -384.45667 159.35437l0 0c-150.16058 -62.15161 -221.49185 -234.26465 -159.32285 -384.42517z" fill-rule="evenodd"/><path fill="#000000" fill-opacity="0.0" d="m1271.9978 1431.4071l0 0c62.168945 -150.16064 234.29614 -221.50598 384.45667 -159.35437l0 0c72.10962 29.846313 129.40613 87.11548 159.28503 159.20923c29.878784 72.09375 29.892456 153.10632 0.037841797 225.21594l0 0c-62.169067 150.16064 -234.29614 221.50598 -384.4568 159.35437l0 0c-150.16052 -62.15161 -221.49182 -234.26465 -159.32275 -384.42517z" fill-rule="evenodd"/><path stroke="#7dacff" stroke-width="1.0" stroke-linejoin="round" stroke-linecap="butt" d="m1271.9978 1431.4071l0 0c62.168945 -150.16064 234.29614 -221.50598 384.45667 -159.35437l0 0c72.10962 29.846313 129.40613 87.11548 159.28503 159.20923c29.878784 72.09375 29.892456 153.10632 0.037841797 225.21594l0 0c-62.169067 150.16064 -234.29614 221.50598 -384.4568 159.35437l0 0c-150.16052 -62.15161 -221.49182 -234.26465 -159.32275 -384.42517z" fill-rule="evenodd"/><path fill="#000000" fill-opacity="0.0" d="m1112.6964 1271.89l0 0c62.168945 -150.16052 234.29602 -221.50598 384.45667 -159.35437l0 0c72.10962 29.846313 129.40613 87.1156 159.28503 159.20923c29.878784 72.09375 29.892334 153.10632 0.037719727 225.21606l0 0c-62.168945 150.16052 -234.29602 221.50586 -384.45667 159.35425l0 0c-150.16052 -62.15161 -221.49182 -234.26465 -159.32275 -384.42517z" fill-rule="evenodd"/><path stroke="#7dacff" stroke-width="1.0" stroke-linejoin="round" stroke-linecap="butt" d="m1112.6964 1271.89l0 0c62.168945 -150.16052 234.29602 -221.50598 384.45667 -159.35437l0 0c72.10962 29.846313 129.40613 87.1156 159.28503 159.20923c29.878784 72.09375 29.892334 153.10632 0.037719727 225.21606l0 0c-62.168945 150.16052 -234.29602 221.50586 -384.45667 159.35425l0 0c-150.16052 -62.15161 -221.49182 -234.26465 -159.32275 -384.42517z" fill-rule="evenodd"/><path fill="#000000" fill-opacity="0.0" d="m343.75146 1271.9005l0 0c62.169006 -150.16052 234.29614 -221.50598 384.45673 -159.35437l0 0c72.10962 29.846313 129.40613 87.1156 159.28497 159.20923c29.878845 72.09375 29.892456 153.10632 0.037841797 225.21606l0 0c-62.169006 150.16052 -234.29614 221.50586 -384.4567 159.35425l0 0c-150.16058 -62.15161 -221.49185 -234.26465 -159.32285 -384.42517z" fill-rule="evenodd"/><path stroke="#7dacff" stroke-width="1.0" stroke-linejoin="round" stroke-linecap="butt" d="m343.75146 1271.9005l0 0c62.169006 -150.16052 234.29614 -221.50598 384.45673 -159.35437l0 0c72.10962 29.846313 129.40613 87.1156 159.28497 159.20923c29.878845 72.09375 29.892456 153.10632 0.037841797 225.21606l0 0c-62.169006 150.16052 -234.29614 221.50586 -384.4567 159.35425l0 0c-150.16058 -62.15161 -221.49185 -234.26465 -159.32285 -384.42517z" fill-rule="evenodd"/><path fill="#000000" fill-opacity="0.0" d="m496.68253 791.7892l0 0c115.10135 -278.02972 433.7971 -410.13037 711.8268 -295.0551l0 0c133.51465 55.26111 239.6034 161.2973 294.9281 294.78186c55.324707 133.48456 55.353394 283.4831 0.079833984 416.99762l0 0c-115.10144 278.0298 -433.79712 410.1305 -711.8268 295.05518l0 0c-278.02972 -115.07532 -410.10925 -433.74988 -295.0079 -711.77954z" fill-rule="evenodd"/><path stroke="#7dacff" stroke-width="1.0" stroke-linejoin="round" stroke-linecap="butt" d="m496.68253 791.7892l0 0c115.10135 -278.02972 433.7971 -410.13037 711.8268 -295.0551l0 0c133.51465 55.26111 239.6034 161.2973 294.9281 294.78186c55.324707 133.48456 55.353394 283.4831 0.079833984 416.99762l0 0c-115.10144 278.0298 -433.79712 410.1305 -711.8268 295.05518l0 0c-278.02972 -115.07532 -410.10925 -433.74988 -295.0079 -711.77954z" fill-rule="evenodd"/><path fill="#000000" fill-opacity="0.0" d="m0.18897638 1000.0l0 0c0 -552.23254 447.67294 -999.9055 999.9055 -999.9055l0 0c265.1914 0 519.52136 105.346886 707.0399 292.86554c187.51868 187.51868 292.8656 441.84857 292.8656 707.04l0 0c0 552.23254 -447.67297 999.9055 -999.9055 999.9055l0 0c-552.23254 0 -999.9055 -447.67297 -999.9055 -999.9055z" fill-rule="evenodd"/><path stroke="#7dacff" stroke-width="1.0" stroke-linejoin="round" stroke-linecap="butt" d="m0.18897638 1000.0l0 0c0 -552.23254 447.67294 -999.9055 999.9055 -999.9055l0 0c265.1914 0 519.52136 105.346886 707.0399 292.86554c187.51868 187.51868 292.8656 441.84857 292.8656 707.04l0 0c0 552.23254 -447.67297 999.9055 -999.9055 999.9055l0 0c-552.23254 0 -999.9055 -447.67297 -999.9055 -999.9055z" fill-rule="evenodd"/><path fill="#000000" fill-opacity="0.0" d="m535.3071 535.24603l0 0c256.79065 -256.79065 673.1377 -256.8118 929.937 -0.04724121l0 0c123.31946 123.302734 192.6012 290.54205 192.60413 464.92725c0.0029296875 174.3852 -69.27319 341.63153 -192.58838 464.94684l0 0c-256.79065 256.79065 -673.13763 256.81177 -929.937 0.04724121l0 0c-256.79935 -256.76465 -256.8064 -673.0834 -0.01574707 -929.8741z" fill-rule="evenodd"/><path stroke="#7dacff" stroke-width="1.0" stroke-linejoin="round" stroke-linecap="butt" d="m535.3071 535.24603l0 0c256.79065 -256.79065 673.1377 -256.8118 929.937 -0.04724121l0 0c123.31946 123.302734 192.6012 290.54205 192.60413 464.92725c0.0029296875 174.3852 -69.27319 341.63153 -192.58838 464.94684l0 0c-256.79065 256.79065 -673.13763 256.81177 -929.937 0.04724121l0 0c-256.79935 -256.76465 -256.8064 -673.0834 -0.01574707 -929.8741z" fill-rule="evenodd"/><path fill="#000000" fill-opacity="0.0" d="m1112.6964 503.0501l0 0c62.168945 -150.16055 234.29602 -221.50592 384.45667 -159.35431l0 0c72.10962 29.846252 129.40613 87.11551 159.28503 159.20923c29.878784 72.09369 29.892334 153.10632 0.037719727 225.21594l0 0c-62.168945 150.16058 -234.29602 221.50592 -384.45667 159.35437l0 0c-150.16052 -62.15161 -221.49182 -234.26465 -159.32275 -384.42523z" fill-rule="evenodd"/><path stroke="#7dacff" stroke-width="1.0" stroke-linejoin="round" stroke-linecap="butt" d="m1112.6964 503.0501l0 0c62.168945 -150.16055 234.29602 -221.50592 384.45667 -159.35431l0 0c72.10962 29.846252 129.40613 87.11551 159.28503 159.20923c29.878784 72.09369 29.892334 153.10632 0.037719727 225.21594l0 0c-62.168945 150.16058 -234.29602 221.50592 -384.45667 159.35437l0 0c-150.16052 -62.15161 -221.49182 -234.26465 -159.32275 -384.42523z" fill-rule="evenodd"/><path fill="#000000" fill-opacity="0.0" d="m1271.9978 343.51993l0 0c62.168945 -150.16057 234.29614 -221.50592 384.45667 -159.35432l0 0c72.10962 29.846252 129.40613 87.115524 159.28503 159.20924c29.878784 72.09369 29.892456 153.1063 0.037841797 225.21597l0 0c-62.169067 150.16052 -234.29614 221.50592 -384.4568 159.35431l0 0c-150.16052 -62.15161 -221.49182 -234.26462 -159.32275 -384.4252z" fill-rule="evenodd"/><path stroke="#7dacff" stroke-width="1.0" stroke-linejoin="round" stroke-linecap="butt" d="m1271.9978 343.51993l0 0c62.168945 -150.16057 234.29614 -221.50592 384.45667 -159.35432l0 0c72.10962 29.846252 129.40613 87.115524 159.28503 159.20924c29.878784 72.09369 29.892456 153.1063 0.037841797 225.21597l0 0c-62.169067 150.16052 -234.29614 221.50592 -384.4568 159.35431l0 0c-150.16052 -62.15161 -221.49182 -234.26462 -159.32275 -384.4252z" fill-rule="evenodd"/><path fill="#000000" fill-opacity="0.0" d="m293.12598 1706.9948l1414.0472 -1414.0472" fill-rule="evenodd"/><path stroke="#7dacff" stroke-width="1.0" stroke-linejoin="round" stroke-linecap="butt" d="m293.12598 1706.9948l1414.0472 -1414.0472" fill-rule="evenodd"/><path fill="#000000" fill-opacity="0.0" d="m293.26773 293.19684l1413.9843 1413.9844" fill-rule="evenodd"/><path stroke="#7dacff" stroke-width="1.0" stroke-linejoin="round" stroke-linecap="butt" d="m293.26773 293.19684l1413.9843 1413.9844" fill-rule="evenodd"/><g filter="url(#shadowFilter-g34ec89ade1e_0_0.1)"><use xlink:href="#g34ec89ade1e_0_0.1" transform="matrix(1.0 0.0 0.0 1.0 0.0 2.0)"/></g><defs><filter id="shadowFilter-g34ec89ade1e_0_0.1" filterUnits="userSpaceOnUse"><feGaussianBlur in="SourceAlpha" stdDeviation="36.5" result="blur"/><feComponentTransfer in="blur" color-interpolation-filters="sRGB"><feFuncR type="linear" slope="0" intercept="0.007843138"/><feFuncG type="linear" slope="0" intercept="0.3647059"/><feFuncB type="linear" slope="0" intercept="1.0"/><feFuncA type="linear" slope="0.31" intercept="0"/></feComponentTransfer></filter></defs><g id="g34ec89ade1e_0_0.1"><path fill="#000000" fill-opacity="0.0" d="m1337.9247 1497.2122l0 0c0 -88.01184 71.34778 -159.3595 159.35962 -159.3595l0 0c42.26477 0 82.79846 16.78955 112.684204 46.675293c29.885742 29.885742 46.675415 70.41943 46.675415 112.684204l0 0c0 88.01196 -71.34778 159.35962 -159.35962 159.35962l0 0c-88.01184 0 -159.35962 -71.34766 -159.35962 -159.35962z" fill-rule="evenodd"/><path stroke="#7dacff" stroke-width="1.0" stroke-linejoin="round" stroke-linecap="butt" d="m1337.9247 1497.2122l0 0c0 -88.01184 71.34778 -159.3595 159.35962 -159.3595l0 0c42.26477 0 82.79846 16.78955 112.684204 46.675293c29.885742 29.885742 46.675415 70.41943 46.675415 112.684204l0 0c0 88.01196 -71.34778 159.35962 -159.35962 159.35962l0 0c-88.01184 0 -159.35962 -71.34766 -159.35962 -159.35962z" fill-rule="evenodd"/></g><g filter="url(#shadowFilter-g34ec89ade1e_0_0.2)"><use xlink:href="#g34ec89ade1e_0_0.2" transform="matrix(1.0 0.0 0.0 1.0 0.0 2.0)"/></g><defs><filter id="shadowFilter-g34ec89ade1e_0_0.2" filterUnits="userSpaceOnUse"><feGaussianBlur in="SourceAlpha" stdDeviation="36.5" result="blur"/><feComponentTransfer in="blur" color-interpolation-filters="sRGB"><feFuncR type="linear" slope="0" intercept="0.007843138"/><feFuncG type="linear" slope="0" intercept="0.3647059"/><feFuncB type="linear" slope="0" intercept="1.0"/><feFuncA type="linear" slope="0.31" intercept="0"/></feComponentTransfer></filter></defs><g id="g34ec89ade1e_0_0.2"><path fill="#000000" fill-opacity="0.0" d="m343.45563 1497.2122l0 0c0 -88.01184 71.34772 -159.3595 159.35959 -159.3595l0 0c42.2648 0 82.79849 16.78955 112.684235 46.675293c29.885742 29.885742 46.675354 70.41943 46.675354 112.684204l0 0c0 88.01196 -71.34772 159.35962 -159.35959 159.35962l0 0c-88.01187 0 -159.35959 -71.34766 -159.35959 -159.35962z" fill-rule="evenodd"/><path stroke="#7dacff" stroke-width="1.0" stroke-linejoin="round" stroke-linecap="butt" d="m343.45563 1497.2122l0 0c0 -88.01184 71.34772 -159.3595 159.35959 -159.3595l0 0c42.2648 0 82.79849 16.78955 112.684235 46.675293c29.885742 29.885742 46.675354 70.41943 46.675354 112.684204l0 0c0 88.01196 -71.34772 159.35962 -159.35959 159.35962l0 0c-88.01187 0 -159.35959 -71.34766 -159.35959 -159.35962z" fill-rule="evenodd"/></g><g filter="url(#shadowFilter-g34ec89ade1e_0_0.3)"><use xlink:href="#g34ec89ade1e_0_0.3" transform="matrix(1.0 0.0 0.0 1.0 0.0 2.0)"/></g><defs><filter id="shadowFilter-g34ec89ade1e_0_0.3" filterUnits="userSpaceOnUse"><feGaussianBlur in="SourceAlpha" stdDeviation="36.5" result="blur"/><feComponentTransfer in="blur" color-interpolation-filters="sRGB"><feFuncR type="linear" slope="0" intercept="0.007843138"/><feFuncG type="linear" slope="0" intercept="0.3647059"/><feFuncB type="linear" slope="0" intercept="1.0"/><feFuncA type="linear" slope="0.31" intercept="0"/></feComponentTransfer></filter></defs><g id="g34ec89ade1e_0_0.3"><path fill="#000000" fill-opacity="0.0" d="m1225.4177 1065.9994l431.24683 431.24683l-159.32678 159.32678l-431.24683 -431.24683z" fill-rule="evenodd"/><path stroke="#7dacff" stroke-width="1.0" stroke-linejoin="round" stroke-linecap="butt" d="m1225.4177 1065.9994l431.24683 431.24683l-159.32678 159.32678l-431.24683 -431.24683z" fill-rule="evenodd"/></g><g filter="url(#shadowFilter-g34ec89ade1e_0_0.4)"><use xlink:href="#g34ec89ade1e_0_0.4" transform="matrix(1.0 0.0 0.0 1.0 0.0 2.0)"/></g><defs><filter id="shadowFilter-g34ec89ade1e_0_0.4" filterUnits="userSpaceOnUse"><feGaussianBlur in="SourceAlpha" stdDeviation="36.5" result="blur"/><feComponentTransfer in="blur" color-interpolation-filters="sRGB"><feFuncR type="linear" slope="0" intercept="0.007843138"/><feFuncG type="linear" slope="0" intercept="0.3647059"/><feFuncB type="linear" slope="0" intercept="1.0"/><feFuncA type="linear" slope="0.31" intercept="0"/></feComponentTransfer></filter></defs><g id="g34ec89ade1e_0_0.4"><path fill="#000000" fill-opacity="0.0" d="m1337.9247 502.71036l0 0c0 -88.01187 71.34778 -159.35959 159.35962 -159.35959l0 0c42.26477 0 82.79846 16.789642 112.684204 46.675354c29.885742 29.885712 46.675415 70.419464 46.675415 112.684235l0 0c0 88.01187 -71.34778 159.35959 -159.35962 159.35959l0 0c-88.01184 0 -159.35962 -71.34772 -159.35962 -159.35959z" fill-rule="evenodd"/><path stroke="#7dacff" stroke-width="1.0" stroke-linejoin="round" stroke-linecap="butt" d="m1337.9247 502.71036l0 0c0 -88.01187 71.34778 -159.35959 159.35962 -159.35959l0 0c42.26477 0 82.79846 16.789642 112.684204 46.675354c29.885742 29.885712 46.675415 70.419464 46.675415 112.684235l0 0c0 88.01187 -71.34778 159.35959 -159.35962 159.35959l0 0c-88.01184 0 -159.35962 -71.34772 -159.35962 -159.35959z" fill-rule="evenodd"/></g><g filter="url(#shadowFilter-g34ec89ade1e_0_0.5)"><use xlink:href="#g34ec89ade1e_0_0.5" transform="matrix(1.0 0.0 0.0 1.0 0.0 2.0)"/></g><defs><filter id="shadowFilter-g34ec89ade1e_0_0.5" filterUnits="userSpaceOnUse"><feGaussianBlur in="SourceAlpha" stdDeviation="36.5" result="blur"/><feComponentTransfer in="blur" color-interpolation-filters="sRGB"><feFuncR type="linear" slope="0" intercept="0.007843138"/><feFuncG type="linear" slope="0" intercept="0.3647059"/><feFuncB type="linear" slope="0" intercept="1.0"/><feFuncA type="linear" slope="0.31" intercept="0"/></feComponentTransfer></filter></defs><g id="g34ec89ade1e_0_0.5"><path fill="#000000" fill-opacity="0.0" d="m343.49036 1497.2053l1153.8014 -1153.8014l159.32678 159.32684l-1153.8013 1153.8014z" fill-rule="evenodd"/><path stroke="#7dacff" stroke-width="1.0" stroke-linejoin="round" stroke-linecap="butt" d="m343.49036 1497.2053l1153.8014 -1153.8014l159.32678 159.32684l-1153.8013 1153.8014z" fill-rule="evenodd"/></g><g filter="url(#shadowFilter-g34ec89ade1e_0_0.6)"><use xlink:href="#g34ec89ade1e_0_0.6" transform="matrix(1.0 0.0 0.0 1.0 0.0 2.0)"/></g><defs><filter id="shadowFilter-g34ec89ade1e_0_0.6" filterUnits="userSpaceOnUse"><feGaussianBlur in="SourceAlpha" stdDeviation="36.5" result="blur"/><feComponentTransfer in="blur" color-interpolation-filters="sRGB"><feFuncR type="linear" slope="0" intercept="0.007843138"/><feFuncG type="linear" slope="0" intercept="0.3647059"/><feFuncB type="linear" slope="0" intercept="1.0"/><feFuncA type="linear" slope="0.31" intercept="0"/></feComponentTransfer></filter></defs><g id="g34ec89ade1e_0_0.6"><path fill="#000000" fill-opacity="0.0" d="m343.45563 502.71036l0 0c0 -88.01187 71.34772 -159.35959 159.35959 -159.35959l0 0c42.2648 0 82.79849 16.789642 112.684235 46.675354c29.885742 29.885712 46.675354 70.419464 46.675354 112.684235l0 0c0 88.01187 -71.34772 159.35959 -159.35959 159.35959l0 0c-88.01187 0 -159.35959 -71.34772 -159.35959 -159.35959z" fill-rule="evenodd"/><path stroke="#7dacff" stroke-width="1.0" stroke-linejoin="round" stroke-linecap="butt" d="m343.45563 502.71036l0 0c0 -88.01187 71.34772 -159.35959 159.35959 -159.35959l0 0c42.2648 0 82.79849 16.789642 112.684235 46.675354c29.885742 29.885712 46.675354 70.419464 46.675354 112.684235l0 0c0 88.01187 -71.34772 159.35959 -159.35959 159.35959l0 0c-88.01187 0 -159.35959 -71.34772 -159.35959 -159.35959z" fill-rule="evenodd"/></g><g filter="url(#shadowFilter-g34ec89ade1e_0_0.7)"><use xlink:href="#g34ec89ade1e_0_0.7" transform="matrix(1.0 0.0 0.0 1.0 0.0 2.0)"/></g><defs><filter id="shadowFilter-g34ec89ade1e_0_0.7" filterUnits="userSpaceOnUse"><feGaussianBlur in="SourceAlpha" stdDeviation="36.5" result="blur"/><feComponentTransfer in="blur" color-interpolation-filters="sRGB"><feFuncR type="linear" slope="0" intercept="0.007843138"/><feFuncG type="linear" slope="0" intercept="0.3647059"/><feFuncB type="linear" slope="0" intercept="1.0"/><feFuncA type="linear" slope="0.31" intercept="0"/></feComponentTransfer></filter></defs><g id="g34ec89ade1e_0_0.7"><path fill="#000000" fill-opacity="0.0" d="m502.81174 343.35202l450.56906 0l0 225.35l-450.56906 0z" fill-rule="evenodd"/><path stroke="#7dacff" stroke-width="1.0" stroke-linejoin="round" stroke-linecap="butt" d="m502.81174 343.35202l450.56906 0l0 225.35l-450.56906 0z" fill-rule="evenodd"/></g><g filter="url(#shadowFilter-g34ec89ade1e_0_0.8)"><use xlink:href="#g34ec89ade1e_0_0.8" transform="matrix(1.0 0.0 0.0 1.0 0.0 2.0)"/></g><defs><filter id="shadowFilter-g34ec89ade1e_0_0.8" filterUnits="userSpaceOnUse"><feGaussianBlur in="SourceAlpha" stdDeviation="36.5" result="blur"/><feComponentTransfer in="blur" color-interpolation-filters="sRGB"><feFuncR type="linear" slope="0" intercept="0.007843138"/><feFuncG type="linear" slope="0" intercept="0.3647059"/><feFuncB type="linear" slope="0" intercept="1.0"/><feFuncA type="linear" slope="0.31" intercept="0"/></feComponentTransfer></filter></defs><g id="g34ec89ade1e_0_0.8"><path fill="#000000" fill-opacity="0.0" d="m1046.7335 343.35202l450.5691 0l0 225.35l-450.5691 0z" fill-rule="evenodd"/><path stroke="#7dacff" stroke-width="1.0" stroke-linejoin="round" stroke-linecap="butt" d="m1046.7335 343.35202l450.5691 0l0 225.35l-450.5691 0z" fill-rule="evenodd"/></g><g filter="url(#shadowFilter-g34ec89ade1e_0_0.9)"><use xlink:href="#g34ec89ade1e_0_0.9" transform="matrix(1.0 0.0 0.0 1.0 0.0 2.0)"/></g><defs><filter id="shadowFilter-g34ec89ade1e_0_0.9" filterUnits="userSpaceOnUse"><feGaussianBlur in="SourceAlpha" stdDeviation="36.5" result="blur"/><feComponentTransfer in="blur" color-interpolation-filters="sRGB"><feFuncR type="linear" slope="0" intercept="0.007843138"/><feFuncG type="linear" slope="0" intercept="0.3647059"/><feFuncB type="linear" slope="0" intercept="1.0"/><feFuncA type="linear" slope="0.31" intercept="0"/></feComponentTransfer></filter></defs><g id="g34ec89ade1e_0_0.9"><path fill="#000000" fill-opacity="0.0" d="m568.7831 502.72525l0 450.56906l-225.35004 0l0 -450.56906z" fill-rule="evenodd"/><path stroke="#7dacff" stroke-width="1.0" stroke-linejoin="round" stroke-linecap="butt" d="m568.7831 502.72525l0 450.56906l-225.35004 0l0 -450.56906z" fill-rule="evenodd"/></g><g filter="url(#shadowFilter-g34ec89ade1e_0_0.10)"><use xlink:href="#g34ec89ade1e_0_0.10" transform="matrix(1.0 0.0 0.0 1.0 0.0 2.0)"/></g><defs><filter id="shadowFilter-g34ec89ade1e_0_0.10" filterUnits="userSpaceOnUse"><feGaussianBlur in="SourceAlpha" stdDeviation="36.5" result="blur"/><feComponentTransfer in="blur" color-interpolation-filters="sRGB"><feFuncR type="linear" slope="0" intercept="0.007843138"/><feFuncG type="linear" slope="0" intercept="0.3647059"/><feFuncB type="linear" slope="0" intercept="1.0"/><feFuncA type="linear" slope="0.31" intercept="0"/></feComponentTransfer></filter></defs><g id="g34ec89ade1e_0_0.10"><path fill="#000000" fill-opacity="0.0" d="m1656.6649 502.72525l0 450.56906l-225.34998 0l0 -450.56906z" fill-rule="evenodd"/><path stroke="#7dacff" stroke-width="1.0" stroke-linejoin="round" stroke-linecap="butt" d="m1656.6649 502.72525l0 450.56906l-225.34998 0l0 -450.56906z" fill-rule="evenodd"/></g><g filter="url(#shadowFilter-g34ec89ade1e_0_0.11)"><use xlink:href="#g34ec89ade1e_0_0.11" transform="matrix(1.0 0.0 0.0 1.0 0.0 2.0)"/></g><defs><filter id="shadowFilter-g34ec89ade1e_0_0.11" filterUnits="userSpaceOnUse"><feGaussianBlur in="SourceAlpha" stdDeviation="36.5" result="blur"/><feComponentTransfer in="blur" color-interpolation-filters="sRGB"><feFuncR type="linear" slope="0" intercept="0.007843138"/><feFuncG type="linear" slope="0" intercept="0.3647059"/><feFuncB type="linear" slope="0" intercept="1.0"/><feFuncA type="linear" slope="0.31" intercept="0"/></feComponentTransfer></filter></defs><g id="g34ec89ade1e_0_0.11"><path fill="#000000" fill-opacity="0.0" d="m568.7831 1046.6307l0 450.5691l-225.35004 0l0 -450.5691z" fill-rule="evenodd"/><path stroke="#7dacff" stroke-width="1.0" stroke-linejoin="round" stroke-linecap="butt" d="m568.7831 1046.6307l0 450.5691l-225.35004 0l0 -450.5691z" fill-rule="evenodd"/></g><g filter="url(#shadowFilter-g34ec89ade1e_0_0.12)"><use xlink:href="#g34ec89ade1e_0_0.12" transform="matrix(1.0 0.0 0.0 1.0 0.0 2.0)"/></g><defs><filter id="shadowFilter-g34ec89ade1e_0_0.12" filterUnits="userSpaceOnUse"><feGaussianBlur in="SourceAlpha" stdDeviation="36.5" result="blur"/><feComponentTransfer in="blur" color-interpolation-filters="sRGB"><feFuncR type="linear" slope="0" intercept="0.007843138"/><feFuncG type="linear" slope="0" intercept="0.3647059"/><feFuncB type="linear" slope="0" intercept="1.0"/><feFuncA type="linear" slope="0.31" intercept="0"/></feComponentTransfer></filter></defs><g id="g34ec89ade1e_0_0.12"><path fill="#000000" fill-opacity="0.0" d="m502.81174 1431.193l450.56906 0l0 225.34998l-450.56906 0z" fill-rule="evenodd"/><path stroke="#7dacff" stroke-width="1.0" stroke-linejoin="round" stroke-linecap="butt" d="m502.81174 1431.193l450.56906 0l0 225.34998l-450.56906 0z" fill-rule="evenodd"/></g><g filter="url(#shadowFilter-g34ec89ade1e_0_0.13)"><use xlink:href="#g34ec89ade1e_0_0.13" transform="matrix(1.0 0.0 0.0 1.0 0.0 2.0)"/></g><defs><filter id="shadowFilter-g34ec89ade1e_0_0.13" filterUnits="userSpaceOnUse"><feGaussianBlur in="SourceAlpha" stdDeviation="36.5" result="blur"/><feComponentTransfer in="blur" color-interpolation-filters="sRGB"><feFuncR type="linear" slope="0" intercept="0.007843138"/><feFuncG type="linear" slope="0" intercept="0.3647059"/><feFuncB type="linear" slope="0" intercept="1.0"/><feFuncA type="linear" slope="0.31" intercept="0"/></feComponentTransfer></filter></defs><g id="g34ec89ade1e_0_0.13"><path fill="#000000" fill-opacity="0.0" d="m1046.7335 1431.193l450.5691 0l0 225.34998l-450.5691 0z" fill-rule="evenodd"/><path stroke="#7dacff" stroke-width="1.0" stroke-linejoin="round" stroke-linecap="butt" d="m1046.7335 1431.193l450.5691 0l0 225.34998l-450.5691 0z" fill-rule="evenodd"/></g><g filter="url(#shadowFilter-g34ec89ade1e_0_0.14)"><use xlink:href="#g34ec89ade1e_0_0.14" transform="matrix(1.0 0.0 0.0 1.0 0.0 2.0)"/></g><defs><filter id="shadowFilter-g34ec89ade1e_0_0.14" filterUnits="userSpaceOnUse"><feGaussianBlur in="SourceAlpha" stdDeviation="36.5" result="blur"/><feComponentTransfer in="blur" color-interpolation-filters="sRGB"><feFuncR type="linear" slope="0" intercept="0.007843138"/><feFuncG type="linear" slope="0" intercept="0.3647059"/><feFuncB type="linear" slope="0" intercept="1.0"/><feFuncA type="linear" slope="0.31" intercept="0"/></feComponentTransfer></filter></defs><g id="g34ec89ade1e_0_0.14"><path fill="#000000" fill-opacity="0.0" d="m1656.6649 1046.6307l0 450.5691l-225.34998 0l0 -450.5691z" fill-rule="evenodd"/><path stroke="#7dacff" stroke-width="1.0" stroke-linejoin="round" stroke-linecap="butt" d="m1656.6649 1046.6307l0 450.5691l-225.34998 0l0 -450.5691z" fill-rule="evenodd"/></g><g filter="url(#shadowFilter-g34ec89ade1e_0_0.15)"><use xlink:href="#g34ec89ade1e_0_0.15" transform="matrix(1.0 0.0 0.0 1.0 0.0 2.0)"/></g><defs><filter id="shadowFilter-g34ec89ade1e_0_0.15" filterUnits="userSpaceOnUse"><feGaussianBlur in="SourceAlpha" stdDeviation="36.5" result="blur"/><feComponentTransfer in="blur" color-interpolation-filters="sRGB"><feFuncR type="linear" slope="0" intercept="0.007843138"/><feFuncG type="linear" slope="0" intercept="0.3647059"/><feFuncB type="linear" slope="0" intercept="1.0"/><feFuncA type="linear" slope="0.31" intercept="0"/></feComponentTransfer></filter></defs><g id="g34ec89ade1e_0_0.15"><path fill="#000000" fill-opacity="0.0" d="m502.78406 343.38202l431.24683 431.24683l-159.32684 159.32684l-431.24683 -431.24683z" fill-rule="evenodd"/><path stroke="#7dacff" stroke-width="1.0" stroke-linejoin="round" stroke-linecap="butt" d="m502.78406 343.38202l431.24683 431.24683l-159.32684 159.32684l-431.24683 -431.24683z" fill-rule="evenodd"/></g><path fill="#000000" fill-opacity="0.0" d="m407.5092 407.4147l1185.1969 0l0 1185.1969l-1185.1969 0z" fill-rule="evenodd"/><path stroke="#7dacff" stroke-width="1.0" stroke-linejoin="round" stroke-linecap="butt" d="m407.5092 407.4147l1185.1969 0l0 1185.1969l-1185.1969 0z" fill-rule="evenodd"/><path fill="#000000" fill-opacity="0.0" d="m502.74802 502.62466l994.7086 0l0 994.58276l-994.7086 0z" fill-rule="evenodd"/><path stroke="#7dacff" stroke-width="1.0" stroke-linejoin="round" stroke-linecap="butt" d="m502.74802 502.62466l994.7086 0l0 994.58276l-994.7086 0z" fill-rule="evenodd"/><path fill="#000000" fill-opacity="0.0" d="m456.08795 1477.7615l1022.0473 -1021.8898" fill-rule="evenodd"/><path stroke="#7dacff" stroke-width="1.0" stroke-linejoin="round" stroke-linecap="butt" d="m456.08795 1477.7615l1022.0473 -1021.8898" fill-rule="evenodd"/><path fill="#000000" fill-opacity="0.0" d="m522.0994 1543.7507l1022.0473 -1021.8898" fill-rule="evenodd"/><path stroke="#7dacff" stroke-width="1.0" stroke-linejoin="round" stroke-linecap="butt" d="m522.0994 1543.7507l1022.0473 -1021.8898" fill-rule="evenodd"/><path fill="#000000" fill-opacity="0.0" d="m456.08795 521.8511l1022.0473 1021.8898" fill-rule="evenodd"/><path stroke="#7dacff" stroke-width="1.0" stroke-linejoin="round" stroke-linecap="butt" d="m456.08795 521.8511l1022.0473 1021.8898" fill-rule="evenodd"/><path fill="#000000" fill-opacity="0.0" d="m522.0994 455.86185l1022.0473 1021.8898" fill-rule="evenodd"/><path stroke="#7dacff" stroke-width="1.0" stroke-linejoin="round" stroke-linecap="butt" d="m522.0994 455.86185l1022.0473 1021.8898" fill-rule="evenodd"/><path fill="#000000" fill-opacity="0.0" d="m728.19354 887.61334l0 0c62.169006 -150.16925 234.30316 -221.52167 384.47247 -159.37006l0 0c72.11377 29.846252 129.4143 87.11713 159.29614 159.2138c29.881714 72.09668 29.896973 153.11334 0.0423584 225.22711l0 0c-62.168945 150.16931 -234.3031 221.52173 -384.4724 159.37012l0 0c-150.16925 -62.15161 -221.50757 -234.27173 -159.33856 -384.44098z" fill-rule="evenodd"/><path stroke="#7dacff" stroke-width="1.0" stroke-linejoin="round" stroke-linecap="butt" d="m728.19354 887.61334l0 0c62.169006 -150.16925 234.30316 -221.52167 384.47247 -159.37006l0 0c72.11377 29.846252 129.4143 87.11713 159.29614 159.2138c29.881714 72.09668 29.896973 153.11334 0.0423584 225.22711l0 0c-62.168945 150.16931 -234.3031 221.52173 -384.4724 159.37012l0 0c-150.16925 -62.15161 -221.50757 -234.27173 -159.33856 -384.44098z" fill-rule="evenodd"/><path fill="#000000" fill-opacity="0.0" d="m840.7397 999.9917l0 0c0 -88.00891 71.34534 -159.35431 159.35431 -159.35431l0 0c42.263428 0 82.79578 16.789062 112.68054 46.67383c29.884766 29.884705 46.67383 70.417114 46.67383 112.68048l0 0c0 88.00903 -71.34546 159.35437 -159.35437 159.35437l0 0c-88.00897 0 -159.35431 -71.34534 -159.35431 -159.35437z" fill-rule="evenodd"/><path stroke="#7dacff" stroke-width="1.0" stroke-linejoin="round" stroke-linecap="butt" d="m840.7397 999.9917l0 0c0 -88.00891 71.34534 -159.35431 159.35431 -159.35431l0 0c42.263428 0 82.79578 16.789062 112.68054 46.67383c29.884766 29.884705 46.67383 70.417114 46.67383 112.68048l0 0c0 88.00903 -71.34546 159.35437 -159.35437 159.35437l0 0c-88.00897 0 -159.35431 -71.34534 -159.35431 -159.35437z" fill-rule="evenodd"/><path fill="#000000" fill-opacity="0.0" d="m502.86105 1431.1632l0 0c18.221039 -18.220947 47.770233 -18.21399 66.00003 0.01574707l0 0c8.754211 8.754272 13.67395 20.625854 13.67688 33.003296c0.0029907227 12.377441 -4.911133 24.246704 -13.661133 32.996704l0 0c-18.22107 18.22107 -47.770264 18.21399 -66.00003 -0.01574707l0 0c-18.229736 -18.229736 -18.236786 -47.77893 -0.01574707 -66.0z" fill-rule="evenodd"/><path stroke="#7dacff" stroke-width="1.0" stroke-linejoin="round" stroke-linecap="butt" d="m502.86105 1431.1632l0 0c18.221039 -18.220947 47.770233 -18.21399 66.00003 0.01574707l0 0c8.754211 8.754272 13.67395 20.625854 13.67688 33.003296c0.0029907227 12.377441 -4.911133 24.246704 -13.661133 32.996704l0 0c-18.22107 18.22107 -47.770264 18.21399 -66.00003 -0.01574707l0 0c-18.229736 -18.229736 -18.236786 -47.77893 -0.01574707 -66.0z" fill-rule="evenodd"/><path fill="#000000" fill-opacity="0.0" d="m549.5511 1384.4846l0 0c18.221008 -18.220947 47.770264 -18.21399 66.0 0.01574707l0 0c8.754211 8.754272 13.67395 20.625854 13.676941 33.003296c0.0029296875 12.377441 -4.911133 24.246704 -13.661194 32.996704l0 0c-18.22107 18.22107 -47.770264 18.21399 -66.0 -0.01574707l0 0c-18.229736 -18.229736 -18.236816 -47.77893 -0.01574707 -66.0z" fill-rule="evenodd"/><path stroke="#7dacff" stroke-width="1.0" stroke-linejoin="round" stroke-linecap="butt" d="m549.5511 1384.4846l0 0c18.221008 -18.220947 47.770264 -18.21399 66.0 0.01574707l0 0c8.754211 8.754272 13.67395 20.625854 13.676941 33.003296c0.0029296875 12.377441 -4.911133 24.246704 -13.661194 32.996704l0 0c-18.22107 18.22107 -47.770264 18.21399 -66.0 -0.01574707l0 0c-18.229736 -18.229736 -18.236816 -47.77893 -0.01574707 -66.0z" fill-rule="evenodd"/><path fill="#000000" fill-opacity="0.0" d="m1431.2632 1497.1881l0 0c-18.220947 -18.22107 -18.21399 -47.770264 0.01574707 -66.0l0 0c8.754272 -8.754272 20.625854 -13.67395 33.003296 -13.677002c12.377441 -0.0029296875 24.246704 4.911133 32.996704 13.661255l0 0c18.22107 18.22107 18.21399 47.770264 -0.01574707 66.0l0 0c-18.229736 18.229736 -47.77893 18.236816 -66.0 0.01574707z" fill-rule="evenodd"/><path stroke="#7dacff" stroke-width="1.0" stroke-linejoin="round" stroke-linecap="butt" d="m1431.2632 1497.1881l0 0c-18.220947 -18.22107 -18.21399 -47.770264 0.01574707 -66.0l0 0c8.754272 -8.754272 20.625854 -13.67395 33.003296 -13.677002c12.377441 -0.0029296875 24.246704 4.911133 32.996704 13.661255l0 0c18.22107 18.22107 18.21399 47.770264 -0.01574707 66.0l0 0c-18.229736 18.229736 -47.77893 18.236816 -66.0 0.01574707z" fill-rule="evenodd"/><path fill="#000000" fill-opacity="0.0" d="m1384.5846 1450.498l0 0c-18.22107 -18.22107 -18.21399 -47.770264 0.01574707 -66.0l0 0c8.754272 -8.754272 20.625854 -13.67395 33.003296 -13.67688c12.377441 -0.0029296875 24.246704 4.911133 32.996704 13.661133l0 0c18.22107 18.22107 18.21399 47.770264 -0.01574707 66.0l0 0c-18.229736 18.229736 -47.77893 18.236816 -66.0 0.01574707z" fill-rule="evenodd"/><path stroke="#7dacff" stroke-width="1.0" stroke-linejoin="round" stroke-linecap="butt" d="m1384.5846 1450.498l0 0c-18.22107 -18.22107 -18.21399 -47.770264 0.01574707 -66.0l0 0c8.754272 -8.754272 20.625854 -13.67395 33.003296 -13.67688c12.377441 -0.0029296875 24.246704 4.911133 32.996704 13.661133l0 0c18.22107 18.22107 18.21399 47.770264 -0.01574707 66.0l0 0c-18.229736 18.229736 -47.77893 18.236816 -66.0 0.01574707z" fill-rule="evenodd"/><path fill="#000000" fill-opacity="0.0" d="m1497.2864 568.81244l0 0c-18.220947 18.221008 -47.77014 18.21399 -66.0 -0.01574707l0 0c-8.75415 -8.754272 -13.67395 -20.625916 -13.67688 -33.003296c-0.0029296875 -12.37738 4.911133 -24.246674 13.661133 -32.996735l0 0c18.22107 -18.221039 47.770264 -18.21399 66.0 0.01574707l0 0c18.229858 18.229767 18.236816 47.77896 0.01574707 66.00003z" fill-rule="evenodd"/><path stroke="#7dacff" stroke-width="1.0" stroke-linejoin="round" stroke-linecap="butt" d="m1497.2864 568.81244l0 0c-18.220947 18.221008 -47.77014 18.21399 -66.0 -0.01574707l0 0c-8.75415 -8.754272 -13.67395 -20.625916 -13.67688 -33.003296c-0.0029296875 -12.37738 4.911133 -24.246674 13.661133 -32.996735l0 0c18.22107 -18.221039 47.770264 -18.21399 66.0 0.01574707l0 0c18.229858 18.229767 18.236816 47.77896 0.01574707 66.00003z" fill-rule="evenodd"/><path fill="#000000" fill-opacity="0.0" d="m1450.5964 615.491l0 0c-18.22107 18.221008 -47.770264 18.21399 -66.0 -0.01574707l0 0c-8.754272 -8.754272 -13.67395 -20.625854 -13.677002 -33.003296c-0.0029296875 -12.37738 4.911133 -24.246643 13.661255 -32.996704l0 0c18.22107 -18.22107 47.770264 -18.21399 66.0 0.01574707l0 0c18.229736 18.229736 18.236816 47.77893 0.01574707 66.0z" fill-rule="evenodd"/><path stroke="#7dacff" stroke-width="1.0" stroke-linejoin="round" stroke-linecap="butt" d="m1450.5964 615.491l0 0c-18.22107 18.221008 -47.770264 18.21399 -66.0 -0.01574707l0 0c-8.754272 -8.754272 -13.67395 -20.625854 -13.677002 -33.003296c-0.0029296875 -12.37738 4.911133 -24.246643 13.661255 -32.996704l0 0c18.22107 -18.22107 47.770264 -18.21399 66.0 0.01574707l0 0c18.229736 18.229736 18.236816 47.77893 0.01574707 66.0z" fill-rule="evenodd"/><path fill="#000000" fill-opacity="0.0" d="m568.8843 502.7876l0 0c18.221008 18.221008 18.21399 47.770264 -0.01574707 66.0l0 0c-8.754272 8.754211 -20.625854 13.67395 -33.003296 13.676941c-12.37738 0.0029296875 -24.246674 -4.911133 -32.996735 -13.661194l0 0c-18.221039 -18.22107 -18.21399 -47.770264 0.01574707 -66.0l0 0c18.229767 -18.229767 47.77896 -18.236816 66.00003 -0.01574707z" fill-rule="evenodd"/><path stroke="#7dacff" stroke-width="1.0" stroke-linejoin="round" stroke-linecap="butt" d="m568.8843 502.7876l0 0c18.221008 18.221008 18.21399 47.770264 -0.01574707 66.0l0 0c-8.754272 8.754211 -20.625854 13.67395 -33.003296 13.676941c-12.37738 0.0029296875 -24.246674 -4.911133 -32.996735 -13.661194l0 0c-18.221039 -18.22107 -18.21399 -47.770264 0.01574707 -66.0l0 0c18.229767 -18.229767 47.77896 -18.236816 66.00003 -0.01574707z" fill-rule="evenodd"/><path fill="#000000" fill-opacity="0.0" d="m615.56287 549.4776l0 0c18.221008 18.22107 18.21399 47.770264 -0.01574707 66.0l0 0c-8.754272 8.754211 -20.625854 13.67395 -33.003296 13.676941c-12.37738 0.0029296875 -24.246643 -4.911133 -32.996704 -13.661194l0 0c-18.22107 -18.221008 -18.21399 -47.770264 0.01574707 -66.0l0 0c18.229736 -18.229736 47.77893 -18.236816 66.0 -0.01574707z" fill-rule="evenodd"/><path stroke="#7dacff" stroke-width="1.0" stroke-linejoin="round" stroke-linecap="butt" d="m615.56287 549.4776l0 0c18.221008 18.22107 18.21399 47.770264 -0.01574707 66.0l0 0c-8.754272 8.754211 -20.625854 13.67395 -33.003296 13.676941c-12.37738 0.0029296875 -24.246643 -4.911133 -32.996704 -13.661194l0 0c-18.22107 -18.221008 -18.21399 -47.770264 0.01574707 -66.0l0 0c18.229736 -18.229736 47.77893 -18.236816 66.0 -0.01574707z" fill-rule="evenodd"/><path fill="#000000" fill-opacity="0.0" d="m728.1551 1431.4071l0 0c62.169006 -150.16064 234.29614 -221.50598 384.45673 -159.35437l0 0c72.10962 29.846313 129.40613 87.11548 159.28491 159.20923c29.878906 72.09375 29.892456 153.10632 0.037841797 225.21594l0 0c-62.168945 150.16064 -234.29614 221.50598 -384.45667 159.35437l0 0c-150.16058 -62.15161 -221.49182 -234.26465 -159.32281 -384.42517z" fill-rule="evenodd"/><path stroke="#7dacff" stroke-width="1.0" stroke-linejoin="round" stroke-linecap="butt" d="m728.1551 1431.4071l0 0c62.169006 -150.16064 234.29614 -221.50598 384.45673 -159.35437l0 0c72.10962 29.846313 129.40613 87.11548 159.28491 159.20923c29.878906 72.09375 29.892456 153.10632 0.037841797 225.21594l0 0c-62.168945 150.16064 -234.29614 221.50598 -384.45667 159.35437l0 0c-150.16058 -62.15161 -221.49182 -234.26465 -159.32281 -384.42517z" fill-rule="evenodd"/><path fill="#000000" fill-opacity="0.0" d="m953.3638 456.0494l0 0c0 -25.770386 20.898071 -46.661407 46.677124 -46.661407l0 0c12.379578 0 24.252075 4.916107 33.005737 13.666809c8.753662 8.750732 13.671509 20.619232 13.671509 32.9946l0 0c0 25.770416 -20.898193 46.661438 -46.677246 46.661438l0 0c-25.779053 0 -46.677124 -20.891022 -46.677124 -46.661438z" fill-rule="evenodd"/><path stroke="#7dacff" stroke-width="1.0" stroke-linejoin="round" stroke-linecap="butt" d="m953.3638 456.0494l0 0c0 -25.770386 20.898071 -46.661407 46.677124 -46.661407l0 0c12.379578 0 24.252075 4.916107 33.005737 13.666809c8.753662 8.750732 13.671509 20.619232 13.671509 32.9946l0 0c0 25.770416 -20.898193 46.661438 -46.677246 46.661438l0 0c-25.779053 0 -46.677124 -20.891022 -46.677124 -46.661438z" fill-rule="evenodd"/><path fill="#000000" fill-opacity="0.0" d="m409.42282 999.9549l0 0c0 -25.770386 20.898071 -46.661438 46.677155 -46.661438l0 0c12.379547 0 24.252075 4.9160767 33.005737 13.666809c8.753662 8.750732 13.671417 20.619263 13.671417 32.99463l0 0c0 25.770325 -20.898071 46.661438 -46.677155 46.661438l0 0c-25.779083 0 -46.677155 -20.891113 -46.677155 -46.661438z" fill-rule="evenodd"/><path stroke="#7dacff" stroke-width="1.0" stroke-linejoin="round" stroke-linecap="butt" d="m409.42282 999.9549l0 0c0 -25.770386 20.898071 -46.661438 46.677155 -46.661438l0 0c12.379547 0 24.252075 4.9160767 33.005737 13.666809c8.753662 8.750732 13.671417 20.619263 13.671417 32.99463l0 0c0 25.770325 -20.898071 46.661438 -46.677155 46.661438l0 0c-25.779083 0 -46.677155 -20.891113 -46.677155 -46.661438z" fill-rule="evenodd"/><path fill="#000000" fill-opacity="0.0" d="m1497.3047 999.9549l0 0c0 -25.770386 20.898071 -46.661438 46.677124 -46.661438l0 0c12.379639 0 24.252075 4.9160767 33.005737 13.666809c8.753662 8.750732 13.671509 20.619263 13.671509 32.99463l0 0c0 25.770325 -20.898071 46.661438 -46.677246 46.661438l0 0c-25.779053 0 -46.677124 -20.891113 -46.677124 -46.661438z" fill-rule="evenodd"/><path stroke="#7dacff" stroke-width="1.0" stroke-linejoin="round" stroke-linecap="butt" d="m1497.3047 999.9549l0 0c0 -25.770386 20.898071 -46.661438 46.677124 -46.661438l0 0c12.379639 0 24.252075 4.9160767 33.005737 13.666809c8.753662 8.750732 13.671509 20.619263 13.671509 32.99463l0 0c0 25.770325 -20.898071 46.661438 -46.677246 46.661438l0 0c-25.779053 0 -46.677124 -20.891113 -46.677124 -46.661438z" fill-rule="evenodd"/><path fill="#000000" fill-opacity="0.0" d="m854.3171 920.2913l0 0c-18.22107 -18.22107 -18.21399 -47.770264 0.01574707 -66.0l0 0c8.754211 -8.754272 20.625854 -13.674011 33.003235 -13.676941c12.377441 -0.0029296875 24.246704 4.911133 32.996765 13.661194l0 0c18.221008 18.221008 18.21399 47.770203 -0.01574707 66.0l0 0c-18.229736 18.229736 -47.77899 18.236755 -66.0 0.01574707z" fill-rule="evenodd"/><path stroke="#7dacff" stroke-width="1.0" stroke-linejoin="round" stroke-linecap="butt" d="m854.3171 920.2913l0 0c-18.22107 -18.22107 -18.21399 -47.770264 0.01574707 -66.0l0 0c8.754211 -8.754272 20.625854 -13.674011 33.003235 -13.676941c12.377441 -0.0029296875 24.246704 4.911133 32.996765 13.661194l0 0c18.221008 18.221008 18.21399 47.770203 -0.01574707 66.0l0 0c-18.229736 18.229736 -47.77899 18.236755 -66.0 0.01574707z" fill-rule="evenodd"/><path fill="#000000" fill-opacity="0.0" d="m1079.6998 1145.644l0 0c-18.22107 -18.22107 -18.21399 -47.770264 0.01574707 -66.0l0 0c8.754272 -8.75415 20.625854 -13.67395 33.003296 -13.67688c12.377441 -0.0029296875 24.246704 4.911133 32.996704 13.661133l0 0c18.22107 18.22107 18.21399 47.770264 -0.01574707 66.0l0 0c-18.229736 18.229736 -47.77893 18.236816 -66.0 0.01574707z" fill-rule="evenodd"/><path stroke="#7dacff" stroke-width="1.0" stroke-linejoin="round" stroke-linecap="butt" d="m1079.6998 1145.644l0 0c-18.22107 -18.22107 -18.21399 -47.770264 0.01574707 -66.0l0 0c8.754272 -8.75415 20.625854 -13.67395 33.003296 -13.67688c12.377441 -0.0029296875 24.246704 4.911133 32.996704 13.661133l0 0c18.22107 18.22107 18.21399 47.770264 -0.01574707 66.0l0 0c-18.229736 18.229736 -47.77893 18.236816 -66.0 0.01574707z" fill-rule="evenodd"/><path fill="#000000" fill-opacity="0.0" d="m953.3638 390.06442l0 0c0 -25.770386 20.898071 -46.661407 46.677124 -46.661407l0 0c12.379578 0 24.252075 4.9160767 33.005737 13.666809c8.753662 8.750702 13.671509 20.619232 13.671509 32.9946l0 0c0 25.770386 -20.898193 46.661407 -46.677246 46.661407l0 0c-25.779053 0 -46.677124 -20.891022 -46.677124 -46.661407z" fill-rule="evenodd"/><path stroke="#7dacff" stroke-width="1.0" stroke-linejoin="round" stroke-linecap="butt" d="m953.3638 390.06442l0 0c0 -25.770386 20.898071 -46.661407 46.677124 -46.661407l0 0c12.379578 0 24.252075 4.9160767 33.005737 13.666809c8.753662 8.750702 13.671509 20.619232 13.671509 32.9946l0 0c0 25.770386 -20.898193 46.661407 -46.677246 46.661407l0 0c-25.779053 0 -46.677124 -20.891022 -46.677124 -46.661407z" fill-rule="evenodd"/><path fill="#000000" fill-opacity="0.0" d="m953.3638 522.02625l0 0c0 -25.770416 20.898071 -46.661438 46.677124 -46.661438l0 0c12.379578 0 24.252075 4.916107 33.005737 13.666809c8.753662 8.750732 13.671509 20.619232 13.671509 32.99463l0 0c0 25.770386 -20.898193 46.661377 -46.677246 46.661377l0 0c-25.779053 0 -46.677124 -20.890991 -46.677124 -46.661377z" fill-rule="evenodd"/><path stroke="#7dacff" stroke-width="1.0" stroke-linejoin="round" stroke-linecap="butt" d="m953.3638 522.02625l0 0c0 -25.770416 20.898071 -46.661438 46.677124 -46.661438l0 0c12.379578 0 24.252075 4.916107 33.005737 13.666809c8.753662 8.750732 13.671509 20.619232 13.671509 32.99463l0 0c0 25.770386 -20.898193 46.661377 -46.677246 46.661377l0 0c-25.779053 0 -46.677124 -20.890991 -46.677124 -46.661377z" fill-rule="evenodd"/><path fill="#000000" fill-opacity="0.0" d="m1563.2952 999.9549l0 0c0 -25.770386 20.898071 -46.661438 46.677124 -46.661438l0 0c12.379639 0 24.252075 4.9160767 33.005737 13.666809c8.753662 8.750732 13.671509 20.619263 13.671509 32.99463l0 0c0 25.770325 -20.898193 46.661438 -46.677246 46.661438l0 0c-25.779053 0 -46.677124 -20.891113 -46.677124 -46.661438z" fill-rule="evenodd"/><path stroke="#7dacff" stroke-width="1.0" stroke-linejoin="round" stroke-linecap="butt" d="m1563.2952 999.9549l0 0c0 -25.770386 20.898071 -46.661438 46.677124 -46.661438l0 0c12.379639 0 24.252075 4.9160767 33.005737 13.666809c8.753662 8.750732 13.671509 20.619263 13.671509 32.99463l0 0c0 25.770325 -20.898193 46.661438 -46.677246 46.661438l0 0c-25.779053 0 -46.677124 -20.891113 -46.677124 -46.661438z" fill-rule="evenodd"/><path fill="#000000" fill-opacity="0.0" d="m1431.3142 999.9549l0 0c0 -25.770386 20.898071 -46.661438 46.677246 -46.661438l0 0c12.379517 0 24.252075 4.9160767 33.005737 13.666809c8.753662 8.750732 13.671387 20.619263 13.671387 32.99463l0 0c0 25.770325 -20.898071 46.661438 -46.677124 46.661438l0 0c-25.779175 0 -46.677246 -20.891113 -46.677246 -46.661438z" fill-rule="evenodd"/><path stroke="#7dacff" stroke-width="1.0" stroke-linejoin="round" stroke-linecap="butt" d="m1431.3142 999.9549l0 0c0 -25.770386 20.898071 -46.661438 46.677246 -46.661438l0 0c12.379517 0 24.252075 4.9160767 33.005737 13.666809c8.753662 8.750732 13.671387 20.619263 13.671387 32.99463l0 0c0 25.770325 -20.898071 46.661438 -46.677124 46.661438l0 0c-25.779175 0 -46.677246 -20.891113 -46.677246 -46.661438z" fill-rule="evenodd"/><path fill="#000000" fill-opacity="0.0" d="m343.48965 999.9549l0 0c0 -25.770386 20.898102 -46.661438 46.677185 -46.661438l0 0c12.379547 0 24.252075 4.9160767 33.005737 13.666809c8.753662 8.750732 13.671417 20.619263 13.671417 32.99463l0 0c0 25.770325 -20.898071 46.661438 -46.677155 46.661438l0 0c-25.779083 0 -46.677185 -20.891113 -46.677185 -46.661438z" fill-rule="evenodd"/><path stroke="#7dacff" stroke-width="1.0" stroke-linejoin="round" stroke-linecap="butt" d="m343.48965 999.9549l0 0c0 -25.770386 20.898102 -46.661438 46.677185 -46.661438l0 0c12.379547 0 24.252075 4.9160767 33.005737 13.666809c8.753662 8.750732 13.671417 20.619263 13.671417 32.99463l0 0c0 25.770325 -20.898071 46.661438 -46.677155 46.661438l0 0c-25.779083 0 -46.677185 -20.891113 -46.677185 -46.661438z" fill-rule="evenodd"/><path fill="#000000" fill-opacity="0.0" d="m475.41327 999.9549l0 0c0 -25.770386 20.898071 -46.661438 46.677185 -46.661438l0 0c12.379517 0 24.252075 4.9160767 33.005737 13.666809c8.753662 8.750732 13.671387 20.619263 13.671387 32.99463l0 0c0 25.770325 -20.898071 46.661438 -46.677124 46.661438l0 0c-25.779114 0 -46.677185 -20.891113 -46.677185 -46.661438z" fill-rule="evenodd"/><path stroke="#7dacff" stroke-width="1.0" stroke-linejoin="round" stroke-linecap="butt" d="m475.41327 999.9549l0 0c0 -25.770386 20.898071 -46.661438 46.677185 -46.661438l0 0c12.379517 0 24.252075 4.9160767 33.005737 13.666809c8.753662 8.750732 13.671387 20.619263 13.671387 32.99463l0 0c0 25.770325 -20.898071 46.661438 -46.677124 46.661438l0 0c-25.779114 0 -46.677185 -20.891113 -46.677185 -46.661438z" fill-rule="evenodd"/><path fill="#000000" fill-opacity="0.0" d="m953.3638 1477.945l0 0c0 -25.770386 20.898071 -46.661377 46.677124 -46.661377l0 0c12.379578 0 24.252075 4.9160156 33.005737 13.666748c8.753662 8.750732 13.671509 20.619263 13.671509 32.99463l0 0c0 25.770386 -20.898193 46.661377 -46.677246 46.661377l0 0c-25.779053 0 -46.677124 -20.890991 -46.677124 -46.661377z" fill-rule="evenodd"/><path stroke="#7dacff" stroke-width="1.0" stroke-linejoin="round" stroke-linecap="butt" d="m953.3638 1477.945l0 0c0 -25.770386 20.898071 -46.661377 46.677124 -46.661377l0 0c12.379578 0 24.252075 4.9160156 33.005737 13.666748c8.753662 8.750732 13.671509 20.619263 13.671509 32.99463l0 0c0 25.770386 -20.898193 46.661377 -46.677246 46.661377l0 0c-25.779053 0 -46.677124 -20.890991 -46.677124 -46.661377z" fill-rule="evenodd"/><path fill="#000000" fill-opacity="0.0" d="m953.3638 1609.9067l0 0c0 -25.770386 20.898071 -46.661377 46.677124 -46.661377l0 0c12.379578 0 24.252075 4.9160156 33.005737 13.666748c8.753662 8.750732 13.671509 20.619263 13.671509 32.99463l0 0c0 25.770386 -20.898193 46.661377 -46.677246 46.661377l0 0c-25.779053 0 -46.677124 -20.890991 -46.677124 -46.661377z" fill-rule="evenodd"/><path stroke="#7dacff" stroke-width="1.0" stroke-linejoin="round" stroke-linecap="butt" d="m953.3638 1609.9067l0 0c0 -25.770386 20.898071 -46.661377 46.677124 -46.661377l0 0c12.379578 0 24.252075 4.9160156 33.005737 13.666748c8.753662 8.750732 13.671509 20.619263 13.671509 32.99463l0 0c0 25.770386 -20.898193 46.661377 -46.677246 46.661377l0 0c-25.779053 0 -46.677124 -20.890991 -46.677124 -46.661377z" fill-rule="evenodd"/><path fill="#000000" fill-opacity="0.0" d="m953.3638 1543.9299l0 0c0 -25.770386 20.898071 -46.661377 46.677124 -46.661377l0 0c12.379578 0 24.252075 4.9160156 33.005737 13.666748c8.753662 8.750732 13.671509 20.619263 13.671509 32.99463l0 0c0 25.770386 -20.898193 46.661377 -46.677246 46.661377l0 0c-25.779053 0 -46.677124 -20.890991 -46.677124 -46.661377z" fill-rule="evenodd"/><path stroke="#7dacff" stroke-width="1.0" stroke-linejoin="round" stroke-linecap="butt" d="m953.3638 1543.9299l0 0c0 -25.770386 20.898071 -46.661377 46.677124 -46.661377l0 0c12.379578 0 24.252075 4.9160156 33.005737 13.666748c8.753662 8.750732 13.671509 20.619263 13.671509 32.99463l0 0c0 25.770386 -20.898193 46.661377 -46.677246 46.661377l0 0c-25.779053 0 -46.677124 -20.890991 -46.677124 -46.661377z" fill-rule="evenodd"/><path fill="#000000" fill-opacity="0.0" d="m162.38303 456.07898l1675.811 0" fill-rule="evenodd"/><path stroke="#7dacff" stroke-width="1.0" stroke-linejoin="round" stroke-linecap="butt" d="m162.38303 456.07898l1675.811 0" fill-rule="evenodd"/><path fill="#000000" fill-opacity="0.0" d="m161.99 1543.9374l1676.252 0" fill-rule="evenodd"/><path stroke="#7dacff" stroke-width="1.0" stroke-linejoin="round" stroke-linecap="butt" d="m161.99 1543.9374l1676.252 0" fill-rule="evenodd"/><path fill="#000000" fill-opacity="0.0" d="m456.1298 161.79181l0 1676.8188" fill-rule="evenodd"/><path stroke="#7dacff" stroke-width="1.0" stroke-linejoin="round" stroke-linecap="butt" d="m456.1298 161.79181l0 1676.8188" fill-rule="evenodd"/><path fill="#000000" fill-opacity="0.0" d="m1544.0592 161.79181l0 1676.8188" fill-rule="evenodd"/><path stroke="#7dacff" stroke-width="1.0" stroke-linejoin="round" stroke-linecap="butt" d="m1544.0592 161.79181l0 1676.8188" fill-rule="evenodd"/><path fill="#000000" fill-opacity="0.0" d="m0.18897638 1000.0l1999.811 0" fill-rule="evenodd"/><path stroke="#7dacff" stroke-width="1.0" stroke-linejoin="round" stroke-linecap="butt" d="m0.18897638 1000.0l1999.811 0" fill-rule="evenodd"/><path fill="#000000" fill-opacity="0.0" d="m1000.0945 1999.9055l0 -1999.811" fill-rule="evenodd"/><path stroke="#7dacff" stroke-width="1.0" stroke-linejoin="round" stroke-linecap="butt" d="m1000.0945 1999.9055l0 -1999.811" fill-rule="evenodd"/><path fill="#000000" fill-opacity="0.0" d="m442.41653 488.85645l0 0c0 -25.770386 20.898071 -46.661407 46.677155 -46.661407l0 0c12.379547 0 24.252075 4.9160767 33.005737 13.666809c8.753662 8.750702 13.671448 20.619232 13.671448 32.9946l0 0c0 25.770386 -20.898071 46.661438 -46.677185 46.661438l0 0c-25.779083 0 -46.677155 -20.891052 -46.677155 -46.661438z" fill-rule="evenodd"/><path stroke="#7dacff" stroke-width="1.0" stroke-linejoin="round" stroke-linecap="butt" d="m442.41653 488.85645l0 0c0 -25.770386 20.898071 -46.661407 46.677155 -46.661407l0 0c12.379547 0 24.252075 4.9160767 33.005737 13.666809c8.753662 8.750702 13.671448 20.619232 13.671448 32.9946l0 0c0 25.770386 -20.898071 46.661438 -46.677185 46.661438l0 0c-25.779083 0 -46.677155 -20.891052 -46.677155 -46.661438z" fill-rule="evenodd"/><path fill="#000000" fill-opacity="0.0" d="m1464.4512 488.85645l0 0c0 -25.770386 20.898071 -46.661407 46.677246 -46.661407l0 0c12.379517 0 24.252075 4.9160767 33.005737 13.666809c8.753662 8.750702 13.671387 20.619232 13.671387 32.9946l0 0c0 25.770386 -20.898071 46.661438 -46.677124 46.661438l0 0c-25.779175 0 -46.677246 -20.891052 -46.677246 -46.661438z" fill-rule="evenodd"/><path stroke="#7dacff" stroke-width="1.0" stroke-linejoin="round" stroke-linecap="butt" d="m1464.4512 488.85645l0 0c0 -25.770386 20.898071 -46.661407 46.677246 -46.661407l0 0c12.379517 0 24.252075 4.9160767 33.005737 13.666809c8.753662 8.750702 13.671387 20.619232 13.671387 32.9946l0 0c0 25.770386 -20.898071 46.661438 -46.677124 46.661438l0 0c-25.779175 0 -46.677246 -20.891052 -46.677246 -46.661438z" fill-rule="evenodd"/><path fill="#000000" fill-opacity="0.0" d="m442.41653 1510.7561l0 0c0 -25.770386 20.898071 -46.661377 46.677155 -46.661377l0 0c12.379547 0 24.252075 4.9160156 33.005737 13.666748c8.753662 8.750732 13.671448 20.619263 13.671448 32.99463l0 0c0 25.770386 -20.898071 46.661377 -46.677185 46.661377l0 0c-25.779083 0 -46.677155 -20.890991 -46.677155 -46.661377z" fill-rule="evenodd"/><path stroke="#7dacff" stroke-width="1.0" stroke-linejoin="round" stroke-linecap="butt" d="m442.41653 1510.7561l0 0c0 -25.770386 20.898071 -46.661377 46.677155 -46.661377l0 0c12.379547 0 24.252075 4.9160156 33.005737 13.666748c8.753662 8.750732 13.671448 20.619263 13.671448 32.99463l0 0c0 25.770386 -20.898071 46.661377 -46.677185 46.661377l0 0c-25.779083 0 -46.677155 -20.890991 -46.677155 -46.661377z" fill-rule="evenodd"/><path fill="#000000" fill-opacity="0.0" d="m1464.4507 1510.7561l0 0c0 -25.770386 20.898071 -46.661377 46.677124 -46.661377l0 0c12.379517 0 24.252075 4.9160156 33.005737 13.666748c8.753662 8.750732 13.671387 20.619263 13.671387 32.99463l0 0c0 25.770386 -20.898071 46.661377 -46.677124 46.661377l0 0c-25.779053 0 -46.677124 -20.890991 -46.677124 -46.661377z" fill-rule="evenodd"/><path stroke="#7dacff" stroke-width="1.0" stroke-linejoin="round" stroke-linecap="butt" d="m1464.4507 1510.7561l0 0c0 -25.770386 20.898071 -46.661377 46.677124 -46.661377l0 0c12.379517 0 24.252075 4.9160156 33.005737 13.666748c8.753662 8.750732 13.671387 20.619263 13.671387 32.99463l0 0c0 25.770386 -20.898071 46.661377 -46.677124 46.661377l0 0c-25.779053 0 -46.677124 -20.890991 -46.677124 -46.661377z" fill-rule="evenodd"/></g></svg>